<mxfile host="Electron" agent="Mozilla/5.0 (Windows NT 10.0; Win64; x64) AppleWebKit/537.36 (KHTML, like Gecko) draw.io/26.0.16 Chrome/132.0.6834.196 Electron/34.2.0 Safari/537.36" version="26.0.16" pages="3">
  <diagram name="Struttura Generale" id="JN_Xk5oYTo3286q971u8">
    <mxGraphModel dx="1221" dy="823" grid="1" gridSize="10" guides="1" tooltips="1" connect="1" arrows="1" fold="1" page="1" pageScale="1" pageWidth="850" pageHeight="1100" math="0" shadow="0">
      <root>
        <mxCell id="0" />
        <mxCell id="1" parent="0" />
        <mxCell id="AfmUneZnjWUOeeO_-tju-8" value="" style="rounded=1;whiteSpace=wrap;html=1;" vertex="1" parent="1">
          <mxGeometry x="150" y="240" width="600" height="140" as="geometry" />
        </mxCell>
        <mxCell id="AfmUneZnjWUOeeO_-tju-10" style="edgeStyle=orthogonalEdgeStyle;rounded=0;orthogonalLoop=1;jettySize=auto;html=1;exitX=0.5;exitY=1;exitDx=0;exitDy=0;" edge="1" parent="1" source="AfmUneZnjWUOeeO_-tju-1">
          <mxGeometry relative="1" as="geometry">
            <mxPoint x="190" y="580" as="targetPoint" />
          </mxGeometry>
        </mxCell>
        <mxCell id="AfmUneZnjWUOeeO_-tju-17" style="edgeStyle=orthogonalEdgeStyle;rounded=0;orthogonalLoop=1;jettySize=auto;html=1;exitX=0.75;exitY=1;exitDx=0;exitDy=0;entryX=0.5;entryY=0;entryDx=0;entryDy=0;" edge="1" parent="1" source="AfmUneZnjWUOeeO_-tju-1" target="AfmUneZnjWUOeeO_-tju-5">
          <mxGeometry relative="1" as="geometry" />
        </mxCell>
        <mxCell id="AfmUneZnjWUOeeO_-tju-1" value="" style="shape=image;verticalLabelPosition=bottom;labelBackgroundColor=default;verticalAlign=top;aspect=fixed;imageAspect=0;image=https://cdn.worldvectorlogo.com/logos/gitlab-3.svg;" vertex="1" parent="1">
          <mxGeometry x="190" y="290" width="72.79" height="70" as="geometry" />
        </mxCell>
        <mxCell id="AfmUneZnjWUOeeO_-tju-15" style="edgeStyle=orthogonalEdgeStyle;rounded=0;orthogonalLoop=1;jettySize=auto;html=1;exitX=0.5;exitY=1;exitDx=0;exitDy=0;entryX=0.5;entryY=0;entryDx=0;entryDy=0;" edge="1" parent="1" source="AfmUneZnjWUOeeO_-tju-2" target="AfmUneZnjWUOeeO_-tju-14">
          <mxGeometry relative="1" as="geometry" />
        </mxCell>
        <mxCell id="AfmUneZnjWUOeeO_-tju-2" value="" style="shape=image;verticalLabelPosition=bottom;labelBackgroundColor=default;verticalAlign=top;aspect=fixed;imageAspect=0;image=https://static-00.iconduck.com/assets.00/harbor-icon-2034x2048-hl34ycc9.png;" vertex="1" parent="1">
          <mxGeometry x="310" y="286.24" width="77" height="77.52" as="geometry" />
        </mxCell>
        <mxCell id="AfmUneZnjWUOeeO_-tju-16" style="edgeStyle=orthogonalEdgeStyle;rounded=0;orthogonalLoop=1;jettySize=auto;html=1;exitX=0.5;exitY=1;exitDx=0;exitDy=0;" edge="1" parent="1" source="AfmUneZnjWUOeeO_-tju-3">
          <mxGeometry relative="1" as="geometry">
            <mxPoint x="160" y="580" as="targetPoint" />
            <Array as="points">
              <mxPoint x="492" y="450" />
              <mxPoint x="161" y="450" />
            </Array>
          </mxGeometry>
        </mxCell>
        <mxCell id="AfmUneZnjWUOeeO_-tju-3" value="" style="shape=image;verticalLabelPosition=bottom;labelBackgroundColor=default;verticalAlign=top;aspect=fixed;imageAspect=0;image=https://cdn.prod.website-files.com/5f10ed4c0ebf7221fb5661a5/5f2af61146c55b6e172fa5b3_NexusRepo_Icon.png;" vertex="1" parent="1">
          <mxGeometry x="450" y="283.5" width="83" height="83" as="geometry" />
        </mxCell>
        <mxCell id="AfmUneZnjWUOeeO_-tju-4" value="" style="shape=image;verticalLabelPosition=bottom;labelBackgroundColor=default;verticalAlign=top;aspect=fixed;imageAspect=0;image=https://upload.wikimedia.org/wikipedia/commons/thumb/2/29/Postgresql_elephant.svg/1985px-Postgresql_elephant.svg.png;" vertex="1" parent="1">
          <mxGeometry x="150" y="582.7" width="84" height="86.6" as="geometry" />
        </mxCell>
        <mxCell id="AfmUneZnjWUOeeO_-tju-5" value="" style="shape=image;verticalLabelPosition=bottom;labelBackgroundColor=default;verticalAlign=top;aspect=fixed;imageAspect=0;image=https://images.icon-icons.com/2699/PNG/512/minioio_logo_icon_168973.png;" vertex="1" parent="1">
          <mxGeometry x="279" y="588" width="152" height="76" as="geometry" />
        </mxCell>
        <mxCell id="AfmUneZnjWUOeeO_-tju-7" value="" style="shape=image;verticalLabelPosition=bottom;labelBackgroundColor=default;verticalAlign=top;aspect=fixed;imageAspect=0;image=data:image/png,iVBORw0KGgoAAAANSUhEUgAAAoAAAAFoCAYAAADHMkpRAAA4rElEQVR4Xu3dCXwU9f3/8W/CjRyKyuFVrQe2nvX219ZWa22rrdpae1lLW4/690bZcN/3oQKiVlFEjuzmJgkBwh0SCPcN4cxFAiQhCbmTTTbz/86CVua7CCSTZGf29X08ng99fNgkm52Zz7wzx3eEpmkCAAAAgUMpAAAAwN6UAgAAAOxNKQAAzpRbWhGUXVzRWmortZPan6b/v14LLqmuUb4OAPyVUgCAQLYtt6ht2PasnmE7sm6THpJ+e9nYsL+Jfq63RIhziHCEjhYO10ThcI4XIaEjRT/nQPnfl/4WlvxH+dpfS/fJr78hbEfmJWXV7iDj9wcAf6AUACDQzN50uPPbcVt+8nbc1tfumrbkAxnuomXY2yhCXJlSmVQvaedQKxXJr9sjv36lDIXz/xW+fqT8ns/K7937YEFpG+PPBYCWohQAwM7q6+u/8cCMZQ9K47sNj1ojQ1u6DHAlUp2PcNdQNdJx+b33/nDKojj5s/49cVVaz69/vvG9AUBzUQoAYFebjhR2Hr18113CMT9EhrJtPgJb03PIkOlwxnYZGv7s2syCq4+crODIIIBmpxQAwG5k8Os0JWnfo12GRk2VIeyw5FGCWfPTjw4u+/UXSX3le7vVXedR3jcANBWlAAB24amvF3+ck/Lg7e8v/lycCn5mnt41S7m06enZyX0/XX+ou/F3AICmoBQAwMpqPR6RdbKiTd/4rTdcOXbBJOFwnZD0GzSMwcu/OFwVFw2O2CTf8/PJ6XmX5pdVKb8bAJhFKQCAVaWkaOLDpPTrxMDIvjJUpQn/ONV7oWRYDY370QcJvwhbfrLL8ePq7wkAjaUUAMCKVhw83un6l7Y+I96OWCRDVKWPYGUl9SLEmSWeWzrtDzO23FVdW8d8ggBMpRQAwCr0qVT0myfun774h9eMjftKOFzHhDWP+p2Fs1o6cO+0pa+PW7H3Iv2aRqaPAWAGpQAAVpBfXtXmj861N4r+rhHC+kf8zqVOBsGtYpDrr2E7si43fhYAcKGUAgD4u4/XHezxN+e6V2UwSpXcPgKTXZW2HxQ+b0pS2s/XZZxob/xcAOB8KQUA8Fcxu3NaPzMn5RftBobHyTBU7CMgBQKPcLj2/3DyoknPzE3+foW7VvmcAOBclAIA+Jvs4vI2V0z89NYuQyJnygCU5w1BajAKJPqzifXrA9N7jY1/6T9xey8tq64NNn5uAHA2SgEA/EVGUVkr1/bMG64bH69P65LrIwjh9BNF/hO16dmonUe6GT9DAPBFKQCAPxicsLPzrz5f9W8R4lwuA06Vj+CDMx1vOyD8y7fitty/OC2Ho4EAvpNSAICWok9xok918m78tttbh4RFy/B3Qpw63WkMO/BNv1s47coxMcPv/33+5SWlTBkDwDelAAAtYVtOUesPU/bfKfqFTpMhJlBv8DBT5vfGxfdJycjveay0kiOCAM6gFACgOe3OKxeT1xy8+opRC16TwW+X4AYPEzkrRUho5B/nJT89bXX6RcbPHkDgUgoA0FyOllS2vWf68j+IkPAE4XCVqAEGJtADdXYrR+TnI5bt7m1cBgACk1IAgKZU5a4TmUUV7Z+du/bW7iNjXKeDH0f9ml5tu4HhB68YHTvQuS3rmtyTnBYGAplSAICmsiTREzRkya7bRUjESBlIcgQ3eLQEfSLpTb1Gxv7VuSOnx8HCSmU5AbA/pQAATSFse1a3y/6y6UUZQNaLU3PXGYMJmpWzSPSPmPvIzDWP5Z6saGtcXgDsTSkAgFn0KV3SC8ta3fdh4k+7j4yJ9YYOJYigBdXKZZJ963uLPnx1wcbL6zz13ql4jMsRgP0oBQAwQ3ZxRfsHPlhzq3C4ZgnvY8uU8AH/US+X0xHhiOg7cdX+6zZv9QQZlycAe1EKANAYNXUeMTlp7w2/+nz1ABks9gpu8LAS/Ykryy97ctefEtKOdjUuWwD2oRQAoKE+Tt3f9snZa/4kQpwpMkiU+QgYsATnsWvGxc3+w+yU+9NPlLcyLmcA1qcUAOBCrck40bHXhGU/6Tg4Qn98m36dH3f3Wl+tcLiOXT4iavJv5y2/oqiypo1xuQOwLqUAAOdr17GTbZzbsm6TwW+KDAz6c3uNIQLWp5/C3/HU7DWv6PMHVtXWcX0gYANKAQDORZ/M+c0FG3s+8OGyvjIcpEp1PoID7EWfsHvhS5Ebn5qzNYtpYwCLUwoAcDb6tC6jxtQH3T0y5WHhCF0jA8FJweneQKLfLZxz6Yjoz+79OKX3nvwyjgYCFqUUAMCXdVkFHfsv2vFjGQJCRYhTv1vUGA4QWApaDwgbnZyRf11GUXlr4/oCwL8pBQD4tpSsgqBJSWm92w0OGy2D32HBET/8j3594Oqf/3flC5NWH+hRXlOrrD8A/JNSAICvbc0p6nzzewkvyJ18kuDxbfBNPy18QjjC4h6fteLhD1JTlfUIgP9RCgACW2m1W2QUlV/04MeJP+k2PHqVCHGWCyZzxrnJdcSZ136wc8bk1XtvySws50YRwI8pBQCBK2J3WtsXIzc+IHfm08SpGzyMO3ng3ByuQ8H9wvqHbs26bltOMTeKAH5IKQAITDPWHujZZvDMoXIHvkvokwAbd+rAhXC43FLCXR8k/n370eIuxvUNQMtSCgACR52nXqxJz29/7/SlT3cZGrlaOLyne9WdOdAwHhkC82+YGB/55Ow1t9V6PEH6VELG9RBA81MKAALD/vzSTlePitendVksOOKHpubwPht68ptxW29Lzizi+kCghSkFAPaWV1bVatKqtDvvmZY4XjicR5QdNdB09D80tgYNin13/tbMnsZ1E0DzUQoA7Gv4st0dH/l05TvC4doqd8RM5oyW4XCVdxsRHff7OclPrssqaG9cTwE0PaUAwF706/zmbs/t0nNc4hNtB4avljvgCsFkzmh5+tRCxRcPi3LdOSnh9oyi0vYnq6qU9RdA01AKAOwjNetEu0/XH9Kv85sjHK4SHzthwB8cE/1nDXk+fPkPC8qreawc0AyUAgDrO1JcHvRG1KYbbp68aITcue71scMF/E2V/CNl7bNzU958f3VaJ+M6DcBcSgGAdemne/8TH9/qh5Pj+4h+zs1yh8rpXliLw1l80eCIuHumLv1p4r5jreqZNgZoEkoBgPW46zxizeH8i/8emvpr0c+VKIMfj26D1ZXLMPhV1M7su/bmlbQzrvMAGkcpALCWhfuzg4cl7rhXvOv6WO4wj/nYkQLW5XDtu+39JSETV+25IedkBY+VA0yiFABYR0Jabverx8eEiBDnNrmzrFN2noD16ZcwlAlHaNJD/13+75Co9cHG7QDAhVMKAPxbYUVNUHpheZerxsX/qcuQyE3C4dTn8+M6P9idvo6Xt+nvWvBW7JYfy23goto6j7J9ADg/SgGAf6p014n5O3I7/e6LNb8Q/bzTuvD4NgSqPGnq9JQDd69Jz29l3FYAnJtSAOCfQhZt7y0GRH8gQpyHBad7Af1Gp83XT1zY94341VccLixUthkAZ6cUAPgP/e7e0K1Zne+ZtvSFtgPDt8sdXrWPHSEQqPTTwiWi/9xVN0+Of7K6ti5YnwrJuB0BUCkFAC3v8GFNJKUVX9wqZN7vRYgzVXDEDzgPTuczc1J+nJRRcFFVbZ2yXQH4H6UAoGXtLyht95Bj70/Ey/EfyZ1aqbqTA3AWHhkC08XAiPH9Y/fcFh2tbl8ATlEKAFrOy5Gbut/34dJxckeWJrl97OAAnFuN6Bu+odf/S345eld2V+N2BoAACLQ4/bqlCWv2Xtpj7IK/B/cP2y1OXefHtC5A49QLh6u805DIVT3GRv/mQEFpp4KKamX7AwKVUgDQfBIPHOs4atnup+TOKl6q9LETA9B4VaK/c8Yvv1z9YEZRWQfjdggEIqUAoOltO3Iy+PXorXf2Gr3gA7lzyvWxwwJgrloR4tzz2MxVowcu3nGtcZsEAo1SANB0aj0e8cS8sM7fn7AwRDhc+uneGsHpXqA5VbQeELbp7qnLnv18fUZ7d61H1NczdQwCj1IAYL6SKndQ0uG8yx/+dOUf5Q5oh4+dEoDmpf/xtVS84PrN+swTnY3bLGB3SgGAuebuONLq1ZhNj8udzTwR4izysSMC0HIKrhgdO3nCqr337D5+so1x+wXsSikAMEdKiiaeGnL4uktGLhjvnZvs1KOrjDsfAC1PPxq47e5pSwb+w5lyiXFbBuxIKQBonOOllUGpWQU9ug6OeV30jdh7eufCdX6Af5PbqLMqKMS5rcfLyU8Nf7+sa6W7Nsi4fQN2oRQANEx+aaWYt/FQt/umL35SOEKXntqhKDsZAH7PWSa5Bi3e8euEtKPtjds6YAdKAcCF0+8ifGZ20k9E33mfC4fzqCD8AVanb8OZl42ImfBa3OYfrD9ygqOBsBWlAOD86KGvptYTNCkp7bK7pyUOlMEvU/D4NsBmnFXyv1uvnRD36sETZZ1q6zxKLwCsSCkAOLc9+fkifFtmL/H2/BeFw6Vf58cNHoD9bXhg+vInVh/Ou7SoskbpC4CVKAUA32199olOt05z/UaEzI8QPL4NCCT6aeETIiR05osRGx75YmtuK2N/AKxCKQDwrc5TL576Irn3LVMWfSRCvKd7OeoHBKZa6UCX4XEjP1p38ApjrwCsQCkAOFNZtbvV6wvX9+w+KvpN4XAdk7jOD4CuusOgiB3dRyx4YcXB492PllQq/QPwV0oBwP9E7sy+/NXozc/L0JcsuMEDgG/6EcGE299f+Kt5S4ovPnpU7SWAv1EKADSx9GBe69ditjzUcVD4PBn+Cn00fAD4Nn0i6SPi70s/enL6lnur3XVMGwO/phSAQFbpdou7Pv7qiivHxE6UDf2wDH91Pho9AJyN/uSf9Ds/WPTuyOU7u1TX1gXpU0YZew3Q0pQCEIiOl1WJ1el5l/aeuPBZ+Vd8ho+mDgAXQv/jcbN42fXn+Rszeb4w/I5SAAJNcWVN0J+d624TA1wfy4Zd7KORA0BDFbcbFPHf8Uv33pyclq/0H6ClKAUg0DwzN+VXskmvl6p9NG8AaKxa8Y5zVe/RC3+3JaewtbEHAS1BKQCBoNJdK4ZF7ercfWDMa0H9XXmCZ/cCaFJOj3A487oOi+6fllfS1diTgOamFAC7q/N4xODF268Q74S+JzjlC6B51V0xJnbq3BUF1xw8qPYnoLkoBcDuxizb3VX0d86WjbjcR3MGgKZWKf6dMPvnAzdff7SIyaPRMpQCYFf6o9zGrNxzaYfBEV+KU1M1GJsyADQTZ5Xo64q+e8jSK91utV8BTU0pAHZU6a4TgxZvv1qEhM4ThD8A/uLtiMTHnivuZexZQFNTCoAdDV286xLZbD+RKpQGDAAtp/bGSQu/WJOef6WxbwFNSSkAdjN6tCbavh0zWDi45g+AXyq9aVLC6C1HCjsb+xfQVJQCYCdFlTWtH/kw+Tme5wvAj9XLHlXSdXjEa7vzipknEM1CKQB2cay0KujZeet+KpvrXm+DVZsuAPiTvJunLvg/Yy8DmoJSAOxi5aHjV4qQsCihz8KvNloA8DsXD4taMmdzxhXGfgaYTSkAdlBa5Q6+YeLCEOFwVRobLAD4LYerotvw2OGRO3PbGPsaYCalANjBne8l3imbaZnSXAHA/6W/E7/18bJqd7CxtwFmUQqA1S3ed7RLr9ExET6aKgBYgUeEOMN2Hiu+1NjfALMoBcDqXone9CfZPPN9NFUAsIrSX81c/aSxvwFmUQqAlbm2Z13TflB4gvD+Ba00VACwjr4RG5/pU9nO2OcAMygFwKpKqtytXo7c+E/ZOEuURgoAluOsfvSzVX829jrADEoBsKr9BaWXyoYZrzZRALAip+eqMbExcXtzuhr7HdBYSgGwqgc/XPZz2TSZ9gWAfThcmQMWbX+8zlOv9DygMZQCYEU7jhcHdRkaGao0TwCwtjppakJabkdj3wMaQykAVvTEV2uuESHOoz6aJwBYnHOjDIA/NPY9oDGUAmBFT8xKelE2SU7/ArAhZ+V9MxY/XVrtVnof0FBKAbCa91YeatcmJDJCv2BabZwAYAfOjworqtsa+x/QUEoBsJoxy3ffIRzO7WrDBADbODBv+9Euxv4HNJRSAKxmzIo9f5bNMc9HwwQAu6jrPWXZLcb+BzSUUgCsZH3WieBeo2OHyuZY66NhAoBt9J608N/GHgg0lFIArGT5wePdRYjTaWyUAGA3vScnzDb2QKChlAJgJTIA3igDYIqxUQKA3Vw2Mmp93L6sYGMfBBpCKQBWIgPgXTIAZhobJQDYjsN5qE/4uu7GPgg0hFIArMJTXy9mb05/RDZGt9IoAcBuHM7cPq7U+4y9EGgIpQBYRUVNrRD95v1FaZIAYEcOZ74MgE8YeyHQEEoBsAoZAINEv9C3lCYJAHbkcBX1ca3vY+yFQEMoBcAqZAAMln8Rj1KaJADYkcNZ0seV+rqxFwINoRQAq5ABsJVsiJOVJgkAtuSs6BOWOsDYC4GGUAqAVcgA2Fo2xA/VJgkAtiQD4Pohxl4INIRSAKziVAB0feSjSQKAHVXJADjK2AuBhlAKgFUQAAEEGAIgTKMUAKsgAAIIMARAmEYpAFZBAAQQYAiAMI1SAKyCAAggwBAAYRqlAFgFARBAgCEAwjRKAbAKAiCAAEMAhGmUAmAVBEAAAYYACNMoBcAqCIAAAgwBEKZRCoBVEAABBBgCIEyjFACrIAACCDAEQJhGKQBWQQAEEGAIgDCNUgCsggAIIMAQAGEapQBYBQEQQIAhAMI0SgGwCgIggABDAIRplAJgFQRAAAGGAAjTKAXAKgiAAAIMARCmUQqAVRAAAQQYAiBMoxQAqyAAAggwBECYRikAVkEABBBgCIAwjVIArIIACCDAEABhGqUAWAUBEHbXqr9Le2DGMu2W9xYp/xaILh0erT386QrtosERyr8FCAIgTKMUAKsgAMLufvtlknYgv0TbebRYu2FivPLvgSRYhuEvNqZrRRXV2qhlu7V2A8OV1wQAAiBMoxQAqyAAws46DY7UPkw5oNV5PNqJ8mrtudB1ymsCyffGxWk7jxVr+th0pFC7/f3FymsCAAEQplEKgFUQAGFnt763SNsig44+amrrtImr9mpBPl4XKJ6YlaTlnKzwfh5y29f+GbbBe1TQ+DqbIwDCNEoBsAoCIOxKD3rPu1Jl8PNo+qivr9cid2Vrl46IVl4bKN6N36aVy+D39XBuy9Q6D41UXmdzBECYRikAVkEAhF11GBSuRezI1r49Nh8p1H40dYny2kDQdmC49tHaA94g/PXQT4tfPyHgroskAMI0SgGwCgIg7OqK0Qu0grIq7dsjs6hce/SzlcprA0GPUTFa5M4zA7E++rhSldfaHAEQplEKgFUQAGFXT85eoxlHWXWt9uzctcprA8ENExdqKw8eN34k2rwtGcprbY4ACNMoBcAqCICwqxlrD2jGoZ/+/HfEBuW1geC29xdrG7NPGD8SLaOwTOsYWHMCEgBhGqUAWAUBEHak39m6NrNA8zUGLtrunQ7lGgvoOXqB1mGQOeFMv/Zxe26R8ePQCsqrtHumJSqvtzECIEyjFACrIAA2re4jY7Rfzlyt/S10nSZ3Ot5pNy7UCxEbtf8XvUn7fzGbL9hrkn7nZ0M4ErZrg5fs1IYkXrih0pjle7RxKxvmvTX7tKnJ+8/qffnv/RZuO+vTPfQ7fQ+dKNN8jV3HirXE/ccsIX5vrvbFxsNyHdigXTaycXcv3zt9qbb7+Enjx6GVVrnl+hlQ1wESAGEapQBYBQGwaXQfFaP1lwFKP+JytKTSe7dlYUWNVtQAxZU12km5ky5pIP26t4bQpwupdOvqGqS6ts47BUtD1Ho8Wp2n/qz0f9ff314ZaH735Rplbr87py75Zr47qw9Pfb13HUhIy/UeFTSua+frbAGwSi7jwUt2KK+3MQIgTKMUAKsgAJrvB5MTtMR9R707bkbTDv0j3pB1Qrtp0sIzlsHTs5OVO4DtMJYeOKZ1GRalrHPn4/4ZS7V9+SXGb+kN059vOKy83sYIgDCNUgCsggBoLv3ZqqFbMzVG843jpZXan+adeWevfuq7pKrG+FLLj+LKauV3PV+PfLrSezTaOPQQHbcnR+s4OGCeC0wAhGmUAmAVBEBz6c+aLat2a4zmG/rn/UrUpjOWw7gVe7ynoO023HUe7/WPxvXuXPSbYl6M2Oj9el8j6XBeo04vWwwBEKZRCoBVEADNc/e0Jdq23KIznrTAaPpRLgOgfpPM18uh9QCXNmdzhi1Pwevr1vytGcq6dy69Rsdoq2XIO9vYdbTYe42g8etsigAI0ygFwCoIgOa4bES0927Nsx1hYTTdKKyo1v7hWv/NstDvvF64N9f4MtuM0G2Zyvr3XToPidRGLdv1nYE4u7hc++2sJOVrbYoACNMoBcAqCICNp59e+4cz1XunL6P5R1ZRufbEF/8LL70nJWjJGfnGl9lmnG8A1NfLmycnaJNXp3mvHfyucbKyRuvzrRBtcwRAmEYpAFZBAGy8q8bGavt93F3JaJ6xI7fIO+3L18vjwRnLfE53Ypfx7QDYakCYdsWYBd7HvOlunpIgf/+l2p/nrfXe2bs/v9Q7Jc+5Lkuo83i8cz8ap9OxKQIgTKMUAKsgADbORUMitK82p2uMlhurDh33noL/epk8MStJyz2p3u1ql/HtAHj1uDjvhNFmjCmr0wLlkXAEQJhGKQBWQQBsOP0U2/OuVO81aIyWGfp1bWHbs7zL4uvl8ndnqlZeY987sZsqAOo3zlw6vHFPG7EIAiBMoxQAqyAANpz+GLLk9PzvvLie0bRDf2rI+JV7vlkmehB8O26rrZdJUwXAJfL7XD02VlnPbYgACNMoBcAqCIANc/GwSO3jdQe9jyVjtNyQ66/2YuTGb5ZL+0Hh3mcQ23k0VQBMzSrQrp8Qr6zrNkQAhGmUAmAVBMCG+ev8dVopEz63+NCXwS9nrvpmuehPYhm5bJfxZbYaTRUA9cfMcQQQuDBKAbAKAuCFu2JMrHfiXEbLj+LKGu9UJ18vG/0uVv0awJM2fAzc16MpAqD+POAJq/YGyuPgCIAwjVIArIIAeGHaDgzTpibv9+4wGS0/CsqrlDtXrxkXqy1Ky9U8Nl1GZgdAfYqYTUdOaHdPS1TWd5siAMI0SgGwCgLg+Ws9IEz7hytVO15q3ylGrDYOnyhTlpPujg8We4ORfo2g3YZZAVCf+6+gvFpbKr/+/g8D5jFwOgIgTKMUAKsgAJ6/H0xO8N71e65JdRnNNzIKy7VgH8tK9z0ZjhwLt2mzN6dr0buOaAt25zTYioPHtcIK/zit/O0A2HVYlPbviA3e07cXQr9zemjiTu05Z6rWa/QC5bOzOQIgTKMUAKsgAJ6ftgPDvY/U0qcdYfjPKK448xpAo1b9w7Ruw6O8T8u4ckxsg+mPScsrqzL++BYZxkfBtep/6uj0hdA/lwB56ocvBECYRikAVkEAPD+Pz0rSqtx1GsO/hrvOo01N3qd1aMInWNw4caG27MAxvznyawyAuGAEQJhGKQBWQQA8t2vHx2kbs09oDP8cR0srtb7xW894HJwZ9CNld3ywRIvcmW38kS06CICNRgCEaZQCYBUEwO/WcUiENnFVmlbptt/NBHYa+WVVWoQMai9HbvQ+C/gXn61qMH1ewedC18nlvtcb/P1tsm8CYKMRAGEapQBYBQHw7PRrpJ6cvUbLLi73m9N/jLMP/fFvJytrtOOlVdrRksqGK630Pt+5urbOL5c7AbDRCIAwjVIArIIAeHY3TVqopWTkaxcy9BDij6GBYZ9BAGw0AiBMoxQAqyAAnt2UpDTvXGnnO7KKK7TVh/O02rrz/xoG40IHAbDRCIAwjVIArIIA6NvPPlmunSiv1s5n6Ef9dhwt1v7wVYr2SvQm76lDBqOpBgGw0QiAMI1SAKyCAKjS531LOpznDXbnGmXVtVrUrmzt6rGxWnB/l/a8az0BkNGkgwDYaARAmEYpAFZBAFQ970r1PmP2u4YeDjOLyrVhiTu1i4dFfetrCYCMph0EwEYjAMI0SgGwCgKg6q+h67S8su9+3u/W3CLt918la52GnDkBMQGQ0dSDANhoBECYRikAVkEAVOkTCsfsOqJ5DPO/6Xf36k+eWLzvqNZ7UoL3cVrGryUA2nPoy95f7u4mADYaARCmUQqAVRAAfbtqbKy282ix9vXQT/lmFZdrQ5acecrXiABov6GH/n35Jd7Jpv1hEAAbjQAI0ygFwCoIgGf3+BdJ2u7jJ73hb1tukfbMnJRzPnOWAGi/Eb4jS/vdl2u8zwP2h0EAbDQCIEyjFACrIACeXZuBYdqPpi7xBr873l+iBfVXX2NEALTXWJuRr31/Qrx2zbg4bel+AqBNEABhGqUAWAUB8Nz0R8IZa2dDALTP0E/5/+yTFd7lSgC0FQIgTKMUAKsgAJqLAGiPoZ/2/2zDIa3rsEjvciUA2goBEKZRCoBVEADNRQC0xyitdmuvxmz+ZrkSAG2FAAjTKAXAKgiA5iIA2mMcKa7w3vjx9XIlANoKARCmUQqAVRAAzUUAtMfQn/Ly689Xf7NcCYC2QgCEaZQCYBUEQHMRAO0xCIC2RgCEaZQCYBUEQHMRAO0xCIC2RgCEaZQCYBUEQHMRAO0xCIC2RgCEaZQCYBUEQHMRAO0xCIC2RgCEaZQCYBUEQHMRAO0xCIC2RgCEaZQCYBUEQHMRAO0xCIC2RgCEaZQCYBUEQHMRAO0xCIC2RgCEaZQCYBUEQHMRAO0xCIC2RgCEaZQCYBUEQHMRAO0xCIC2RgCEaZQCYBUEQHMRAO0xjAGw1+gF2sK0XOPLmn14PB5t9uZ0Zb3DBSEAwjRKAbAKAqC5CID2GEdLKrU/zk35Zrl2HByhzd6Urnnq640vbdZR5a7VRi3brax3uCAEQJhGKQBWQQA0FwHQHqOypk57J37bGcv25aiNWnFljfGlzTryyqq0n368XFnvcEEIgDCNUgCsggBoLgKgPUZ9fb02Z0uGdumI6G+W7SXDo7T4PTmax9MyRwFrPR7tw7X7tTYDwpT1DheEAAjTKAXAKgiA5iIA2mfkllRqv/xs1RnLt+eoBVrUzmwtv6yq2YKgHvyyiyu06Sn7tc5DI5V1DheMAAjTKAXAKgiA5vLHAFhb59GOl1Zp+/JLtLS8wJBVXK655e/d2BEpw16nIWeGrstHxmh/m79Om5KUps3dkuG9K7epfLU5Qxu7Yo/2uy/XEP7MQwCEaZQCYBUEQHP5WwDcffyk9krUJu3/ZizT7py6RLvjA/u7U7p3+lLtrzKkrUnP0+oacaSuyl2n9Vt45rWAX+swONx7ilgPhE1F//5tB4YrPxuNQgCEaZQCYBUEQHP5SwDUj34t2H1Eu2L0Ai24v/o+A0FQiH60Llobv3KPVlrl1hp6A29RZY02NHGn1l0GMv17Gn8OLIcACNMoBcAqCIDm8ocAqAeddRkF2i3vLVLeXyDSj6KFb89u1JHA8ppaLXxHlvbbWUln3BgCSyIAwjRKAbAKAqC5/CEA6mFl0OIdWmvuFv3GYzNXeU/nNnZkFVdo0buOaGNW7NFeiNigPTs3RXtqdvJ5e3DGMq3D4Ajl/aFZEQBhGqUAWAUB0Fz+EACzDE+xgEtrNzBcK6yoNn5UDRr6FDH6MtbnBDxRXq3lX4CIndnex8oZ3x+aFQEQplEKgFUQAM3lDwFQvwv2numJynsLdAcLSo0fVbOPpQeOaddNiFfeG5oVARCmUQqAVRAAzeUvAfCuaQRAIwIgTiMAwjRKAbAKAqC5CID+iwCI0wiAMI1SAKyCAGguAqD/IgDiNAIgTKMUAKsgAJqLAOi/CIA4jQAI0ygFwCoIgOYiAPovAiBOIwDCNEoBsAoCoLkIgP6LAIjTCIAwjVIArIIAaC4CoP8iAOI0AiBMoxQAqyAAmosA6L8IgDiNAAjTKAXAKgiA5iIA+i8CIE4jAMI0SgGwCgKguQiA/osAiNMIgDCNUgCsggBoLgKg/yIA4jQCIEyjFACrIACaiwDovwiAOI0ACNMoBcAqCIDmIgD6LwIgTiMAwjRKAbAKAqC5CID+iwCI0wiAMI1SAKyCAGguAqD/IgDiNAIgTKMUAKsgAJrLHwLgXj0ATl2ivLdApwfjlh4L03K1q8fGKu8NzYoACNMoBcAqCIDmemzmKq3SXau11Kivr9e25hRp143nKJORfvStJYe+bL7anK5dMjxaeW9oVgRAmEYpAFZBADTX5SNjtJyTFVpLDY+nXnNuy9TaDAhT3lug65+w3RvCWmqUVbu1d+O3akH91feGZkUAhGmUAmAVBEDzjV2xxxvEWmLoIePh/65U3hNc2i3vLdJ2HSs2fmTNMvTguSH7hPaDyQnK+0KzIwDCNEoBsAoCoPmuGL1Am7M5Xatw1zbbESeP/DlFlTXeI0ytOfrnU6v+Ydozc5K1/fklWl0zBvQ6j8d7VPjnMpgHc/TPHxAAYRqlAFgFAbBpdB0Wqf0napOWuP+YtvNYsQwdpdr+AvPtk2FmS06R5tyepT02czXh7zzc+cFibeaGQ9qm7ELvDTNNtWz0760f9fts/SHt9vcXK+8DLYYACNMoBcAqCIBNq9uIKO+ULD/5eLn20CcrTPfjj5ZpP5iySOswKFz52Tg7/WjgjRMXag/MWKr99JOmWTb69/7+hHitLaHc3xAAYRqlAFgFARBAgCEAwjRKAbAKAiCAAEMAhGmUAmAVBEAAAYYACNMoBcAqCIAAAgwBEKZRCoBVEAABBBgCIEyjFACrIAACCDAEQJhGKQBWQQAEEGAIgDCNUgCsggAIIMAQAGEapQBYBQEQQIAhAMI0SgGwCgIggABDAIRplAJgFQRAAAGGAAjTKAXAKgiAAAIMARCmUQqAVRAAAQQYAiBMoxQAqyAAAggwBECYRikAVkEABBBgCIAwjVIArIIACCDAEABhGqUAWAUBEECAIQDCNEoBsAoCIIAAQwCEaZQCYBUEQAABhgAI0ygFwCoIgAACDAEQplEKgFUQAAEEGAIgTKMUAKs4FQCdH/pokgBgR5UyAA419kKgIZQCYBUyALYSDucEH00SAGzIWd4nLDXE2AuBhlAKgFXIABgsG+IItUkCgC2V9glb/4axFwINoRQAq5ABMEg4XG/4aJIAYEfFMgD2MfZCoCGUAmAVFTVuIRyhz8qmWO+jUQKAzTjz+4SlPm7shUBDKAXAKqpra8UDn4b+TDbGKrVRAoDNOFw5fVwb7jL2QqAhlAJgJcsPHr9LNsYMpVECgN04XIdkALzc2AeBhlAKgJXIAHiDbIzJSqMEAJu5emxs6t68kmBjHwQaQikAVrL84LFuIiR0trFRAoDd9J6U8ImxBwINpRQAK0nLP9nqvhlLBsvm6DY2SwCwk96TFj1v7IFAQykFwGrGrNjzF9kc84zNEgBspLb3BwtuMvY/oKGUAmA1Y1bsvk2EOLcJpoMBYFcO547tR4s6G/sf0FBKAbCasO2ZbbqPjHYKh6tOaZoAYAvOcYUVNW2M/Q9oKKUAWNETXyT9RwbASrVpAoDllfzDtf63le46pfcBDaUUACt64vPVVwuHs8BH4wQAa3O41iSk5XL9H0ylFAArqqnziG4jor9UGicAWFt1jxELhicfzm9t7HtAYygFwKouHfXVL2WzrPDRQAHAmhyuA0OW7HzI2O+AxlIKgFVNS916uWyYiUoDBQBr8twyZdH8bbnFHY39DmgspQBY1aGCsuDOgyL/JUKc5T4aKQBYjLPs0c+W/dzY6wAzKAXAyr7anHGNcLjiZfP0qM0UAKyj1QBn1JAVK5Q+B5hBKQBWtjO3OOi+6Uv/KZvnCWMzBQDLcLjy3l247efGHgeYRSkAVvdK3J6LRUj4YqWhAoA1eESI8+OdR4u7GPsbYBalAFidu84jnp2bcpv8C7rIR2MFAH+mP9Jy3YzUA3d46uuV/gaYRSkAdlDprgsW74aPko202keDBQB/VXzzewkvJ2cVBBv7GmAmpQDYQa3HIwYm7LpOOFyLxKm/qI1NFgD8Tq8xC+asyyy42NjTALMpBcAuKt21Qe8u3PaobKp7BSEQgH/Te1TaA+8nf8/Yy4CmoBQAO4nYnSd6jF7YRzi4KxiA35Lhz5n+wIxlvy6rdgcZ+xjQFJQCYDcR27PbXDQ4YrRssm4fjRcAWlr+I5+ufP3wibIOxv4FNBWlANhR2I7s7rLJzpJqfTRfAGghTvc90xLHpxeWM+ULmpVSAOyovr5eLNh9pOdlI2I+Ew5XldqEAaCZOVwVwf1d01+duaW1sWcBTU0pAHbm2pZ1tTcEhrjqlGYMAM2nRPR3ffTP6A2XGfsU0ByUAmB3sbuP9JB/eX8uG3CNj6YMAE2tXLzhev+F+Rt7FVfVKD0KaA5KAbA7/XRwxI7s7hcNihx7+u5gpogB0Bz0XlN+Wd+lQ1/oW9a5pMKt9CeguSgFIFBEbj/SpuegBc8Lh3PP6cZsbNYAYBb9spP9D8xY9q+Kmlqe8oEWpxSAQBKZekQ44r2TRSdI3BwCwHwOGf76uRIf/XTVY4cLy9oZ+xDQEpQCEGgq3XVBQxJ3Xicbtf7s4GKleQNAw7nF2xGf3vv7vGszCsuZ5Bl+QykAgajOUy+qa+uC/zYv9YfibVeC/Iu9UDZuj49mDgDn5nBVXjYies1d0xf/bn9+SVu3W+07QEtSCkAgq/N4xGuzt1z84EfLX5RNfIVs4twpDOBC6H84Huw2PHrk/K2Z1xp7DOAvlAIATew+XhI8b2vmTV2HRAyRIfCIjyYPAEYnpVn9F2//Rfze3LbGvgL4E6UA4H8yi8rbfZJ66K4Og8JnixBngeBuYQBnkj3BWRnUPzz1qa+SHzt0oqxLhbuWa/3g95QCANXMLfuDn5yd9Kjo51ouHNwoAsCrWlr/o6lL3noucmdnY98A/JlSAOCbp75eTFi+98rHv0h6Q/7Fv1E2/lofOwQAgSGn5+jY0RNWpd2689jJVsZ+Afg7pQDgu2UXV7R96HPXTSJk3iS5EyjzsWMAYF+VUtT7a/Y9vOlIYUdjfwCsQikAOLdaj0dkF5W3unvK4ju7j4wJlTuE4z52FADsQb/2t7TVAFfy3R8s+9WnKVlt9DMCxr4AWIlSAHBhIndld3otZvOzwuFcJXcSFT52HgCsS58KavOjn60KCVm8rYdx+wesSikAuHD19fVi+OLtN4q35vSTQXC/YBJpwA5Oiv/EjfvF65l3Hi4sY1oX2IpSANAwVe5acbigtO1f5yXfcNmIqI9FiFO/W1h/ALxxpwLAf+nTupzsNCQitsfwBT/de7SsQ0GBur0DVqcUADReQXl1q3vHrXlYvBQfIXcozB8IWEN524Fhq5+anfRsxM7M9sbtGrATpQDAHGlpmpgQerz7NZMWPS9CnKmCo4GAv6oTDuduMfCzgcOXbbvOuC0DdqQUAJhr27GTQR+nHvyB3MmMkEGQu4UB/1IrHK7pT89ed0dSxpH2lW63sg0DdqQUAJhPnzLCXecJClm0/fq2g+Z+KU5NG8MRQaBleOQfYyeuHBMbc/f0xQ+W17iD6zxM64LAohQANK2hK1e3/c3nSc+KfmEL5I6oVHB9INCMnPq0Lquum5TYZ+mBo5cYt08gUCgFAE0vq6giaP6WrKtvmrTwBbkz0qeN8bGjAmAi/Q+tdBESOuSD5H0/SMosVrZLIJAoBQDNJ7eksnX83twbOw+NnCJ3TjmC08KA2TzC4SrpMSrm09diNt96uLCsnbvOo2yLQKBRCgCaX/z+3KCn56bc13FwxHy5w8oXnBYGGkvfhgrFu/Njfzpj2eO1hD7gDEoBQMv5JPVQ1+ddqX3kjmuZVOVjpwbg3PQn8ay75f3FL0xctrNXdmGZsq0BgU4pAGhZ+iTSf3Hkf0/8c/Gbcid2wsfODcBZOfOkcWE7sm7ec7yklXH7AnCKUgDQ8urqNO+0MfdPX/S9a8bFzhAOV5bg+kDgbPQjfnkdh4TPnLgq7WZ929Gfz23crgD8j1IA4F+SDue3e2PBlse6DIsMkzu5Eh87PyCQyW3CGf/MnJQ/T167q7Vx+wHgm1IA4J/mbMnsKQbFviR3dpuE/vQCdUcIBJrd905f+tL8bZnX5JdVBRu3GQBnpxQA+Cf9SQXpRRWt+8Vtv7rnyNiBwuE6LhEEEWhqhcOZ03VY1ORbHyu4Nq+siqN+QAMoBQDW8Oy8dXfe/v7iL/SdoTh1DZRxRwnYjDPvkuFRs56enXRPcnoeR/yARlAKAKxjS05h1x99mPB7ERIaK3eQbnWHCdhChZT4asym5+dszbjIuB0AuHBKAYC17Cs4GRS3J+cq8Y7rTeFwHvax8wSsLEcMnPX6a3Erry6pcjOtC2ASpQDAevQpL2rrPEHTUw706jw0dLQMgkwbA+vSr211ODOunxD//uP/XdlDX7c9TOsCmEopALC26evXi7/MS35UvBs6T+5IeawcrOZkz1ELZr2xYPPDW3MK2xrXbwDmUAoArK+oolqEbsno/tOPV/xJ7lDX+NjJAv5Gv6M9WQyOf37p/mPdjOs0AHMpBQD2kV9eHbz9aFHPS4ZH9xeOsEPi1I0iHBGEP3EHh7jSe46IfWv88r29Mooquc4PaAZKAYD9bMotFb+ft+nmy0fFTJU7XP36QEIgWlqdCHFm3Pfh0o9eitpwvXGdBdC0lAIA+3LtyG7bN27rU8LhihI8Vg4tp1r0d3310Gcrfr0vv4RpXYAWoBQA2Ft5TW3QmvT8nr/5fHUf4XDu87FzBpqKfuR5Z/BAZ581GfmXpxeVKesngOahFAAEBv3Rcs98ubbLjZMWjpI75QNSjY8dNmAGt3gnfG+3N5e+E7o1s1utx6OsjwCal1IAEFh2Hz/Z+s3YLQ9cPTb2Y+Fw6tPGGHfeQEN5hMOVLfq5/vvCnG13zZ6trn8AWoZSABCYVh463rXdsI+ekTvt5YKjgWgshx7+nFG/nbX6idCtWV0r3bXKOgeg5SgFAIErq/hk8LSU/d17jYl9ufWAMP36QIIgLoR+jV+VeDNyR49hcf/KKCq/uKiiOsi4ngFoeUoBAHRvxG2+8v8+WjZVhDgPilOT9Bp39sC3eaRdV42PG/qHd3OvPHhQXacA+A+lAABfSy8s6/DLL1Y9Kvq7Zsmde4WPnT6gyxP9XDOHJe78cfz+XCZyBixAKQDAt2WdLBfJGfmXdRwa/hcR4twumEQa/+OR68Tq55zrnkhOz7+kppa7ewGrUAoA4Is+bUzM7pyLL+u79C3RN3ynOPVYOWMggP3pfwBUCIdr6y1TFr/08qebW3nq65X1BYB/UwoA8F1CQzXxypxdtwnH/E/EqcfK6dd+GUMC7Gtf78kJI9+M2X5TdnEFN3gAFqUUAOBc3HUe4dyW0eWPc9Y+IQOB/lg5bhKxO4f30YFzP11/6CepmSfaG9cJANaiFADgfBVX1gRlFpV3/f74hf8QIWG7hD4FCNcI2olcls6KtgPDV/caGv7EvA2HuuiXAhjXAwDWoxQA4EIdOVkl/hC65aprx8cNl4FBD4KEQOurFA7n5l98uvKdYct2dTQucwDWphQAoKES9x9tPWbF7v8TIaH6tDEFPkIFrCH77mmJYyav2ntHXmkV07oANqQUAKAx9FOEKRn53V6I2Pi0DBJrpTofAQP+Sb+zO+6q4YkP7s8vvci4bAHYh1IAADPoU4O8Hbmn9e3vL3lFhDj1aWMqfQQO+AVnaZehEcvvm770iaTD+W09XOcH2J5SAAAz5ZVVBb0Vu+WHt763eIIMGofU8IEW5Nbn82v99LoBH607cLlx2QGwL6UAAE1h05HCi675TfpDMnRECo4G+oNCMSB80ovRm++OiKtpY1xeAOxNKQBAUzl6tF5E7cy55IoxC59pNyg8VTgIgs1Mn7S7tNuI6IQHPlp+b2ZxRYfS6lplOQGwP6UAAM1h3Io9F/9q5upBMgTq08bU+AgrMJM3bM9LvPm9mL9uySniBg8gwCkFAGguRRU1rf8SuvF+MSDyAxHiPK6EFpjBI8Pf3rYO16DJSTuvTcnKUpYDgMCjFACgOeWV14iUzBNdbxwf/zMZAtd4A4saYtAQDle5/O8nIQnb70nNKGhn/OwBBC6lAAAtQZ82ZlP2iQ73T0/828XDIlO4PrDBZIB2For+EQnPzEm+R/9c6+uZ1gXAmZQCALS0mRsOXdthQMRoGWT2nQo0SsiBb7XyM1t+/4zEF99KSLuk0l2nfLYAoFMKAOAPYnbmtH9twaafiZDQz2WwKfMRdnCm7A4DI4a6tmfduOtYcbDx8wSAb1MKAOAvymtqg7KKyzs9/N+Vj4iQeRuEw1Uhg069j/ATqPTTvXkdB0d8PmPtgTuyiyu4zg/AeVEKAOBv3HV14hlnzMW3vrf4TRl6UsWpZ9Yaw1Agqfde5+cIXfTUV2t++fHGQxzxA3BBlAIA+KsN2YXBU5LSbu00JHKiDEE5PoJRIKgTDtfaX81c/Z8pq/f0qq7lOj8AF04pAIC/25hd2Gn40l2PyDAUK1X7CEl2VdxpcMT4tRkF388uruDxbQAaTCkAgBXoU5tMWbuv1X0zlj0uHKEbxakbRex5faDDmdN9ZMzn909d9oP0E2VBxs8CAC6UUgAAK6nzeMTbsZuu/snHywcKh2ub0E+RGgOUdZVKS16L3vy0a2tWe+PvDgANpRQAwIrS8kra3ft81l3ijagZp4OTMUxZif74tl3it2tfHTw363vuOo/y+wJAYygFALCqggJNrM8quujKiYseuWhIxGIR4izxEa78Wa0Mfsd6jIqZ/OycpCuzjrvbVFWpvycANJZSAAA7mLXpcKdn5ib/Q4aq9TII6s/ENYYt/+JwHfn+hPhZf/xq7QM5JyuZ1gVAk1IKAGAX+o0ir3+172bxh6QBMgTuEP55fWCJfG8x41fueXLZgWNdjb8DADQFpQAAdlJSoom1Oyrb//wLV28RMm+wDFtHfISw5udwuaUF4pcbn5oeVdCrzlOvvHcAaCpKAQDsSD8aqFt24NjFD3y49O+dhkQulEEsS6oSzTN9jH5jR4EMoFuunxg/9bGZq+74+j3V16vvFwCaklIAgEAwNXl/27fjtj760H9XDpXhLFLaJ8yfVNojHZOShGP+J2/EbHnu7YWbr9mYk89cfgBalFIAgECyP780OGxHdo+wHVkP9I3f9hcZ1sYIhzNWOFyHRMMC4VEpWZrZeWjEK/L7/kK6KWx7Zgd9zkLjzweAlqAUACBQVdTUBmUXV7STukrdJ6/e8/2rxsT85KoxC/501dgF70jDpAlXjY2dLE2S/z9KGiD//V9XjYn99VXDom89fKKsp/zabtJFOScrWhl/BgD4A6UAAAAAe1MKAAAAsDelAAAAAHv7/wYbpE3W4k5UAAAAAElFTkSuQmCC;" vertex="1" parent="1">
          <mxGeometry x="110" y="210" width="106.67" height="60" as="geometry" />
        </mxCell>
        <mxCell id="AfmUneZnjWUOeeO_-tju-12" style="edgeStyle=orthogonalEdgeStyle;rounded=0;orthogonalLoop=1;jettySize=auto;html=1;exitX=0.5;exitY=1;exitDx=0;exitDy=0;entryX=0.75;entryY=0;entryDx=0;entryDy=0;" edge="1" parent="1" source="AfmUneZnjWUOeeO_-tju-11" target="AfmUneZnjWUOeeO_-tju-4">
          <mxGeometry relative="1" as="geometry">
            <Array as="points">
              <mxPoint x="650" y="490" />
              <mxPoint x="213" y="490" />
            </Array>
          </mxGeometry>
        </mxCell>
        <mxCell id="AfmUneZnjWUOeeO_-tju-11" value="" style="shape=image;verticalLabelPosition=bottom;labelBackgroundColor=default;verticalAlign=top;aspect=fixed;imageAspect=0;image=https://www.svgrepo.com/show/354365/sonarqube.svg;clipPath=inset(33.33% 0% 30.33% 0%);" vertex="1" parent="1">
          <mxGeometry x="560" y="286.24" width="180" height="65.4" as="geometry" />
        </mxCell>
        <mxCell id="AfmUneZnjWUOeeO_-tju-14" value="" style="shape=image;verticalLabelPosition=bottom;labelBackgroundColor=default;verticalAlign=top;aspect=fixed;imageAspect=0;image=https://images.icon-icons.com/2415/PNG/512/redis_original_wordmark_logo_icon_146369.png;" vertex="1" parent="1">
          <mxGeometry x="480" y="561" width="130" height="130" as="geometry" />
        </mxCell>
        <mxCell id="AfmUneZnjWUOeeO_-tju-18" style="edgeStyle=orthogonalEdgeStyle;rounded=0;orthogonalLoop=1;jettySize=auto;html=1;exitX=1;exitY=1;exitDx=0;exitDy=0;entryX=0.808;entryY=0.023;entryDx=0;entryDy=0;entryPerimeter=0;" edge="1" parent="1" source="AfmUneZnjWUOeeO_-tju-1" target="AfmUneZnjWUOeeO_-tju-14">
          <mxGeometry relative="1" as="geometry">
            <Array as="points">
              <mxPoint x="263" y="440" />
              <mxPoint x="585" y="440" />
            </Array>
          </mxGeometry>
        </mxCell>
      </root>
    </mxGraphModel>
  </diagram>
  <diagram id="rK5bm2ae9E1ylFN4K7kV" name="Distribuzione Risorse">
    <mxGraphModel dx="1221" dy="823" grid="1" gridSize="10" guides="1" tooltips="1" connect="1" arrows="1" fold="1" page="1" pageScale="1" pageWidth="850" pageHeight="1100" math="0" shadow="0">
      <root>
        <mxCell id="0" />
        <mxCell id="1" parent="0" />
        <mxCell id="wjq4QsMhivjHkZ3qCEQb-8" value="" style="rounded=0;whiteSpace=wrap;html=1;" vertex="1" parent="1">
          <mxGeometry x="97" y="140" width="713" height="340" as="geometry" />
        </mxCell>
        <mxCell id="wjq4QsMhivjHkZ3qCEQb-1" value="" style="rounded=1;whiteSpace=wrap;html=1;" vertex="1" parent="1">
          <mxGeometry x="150" y="240" width="600" height="140" as="geometry" />
        </mxCell>
        <mxCell id="wjq4QsMhivjHkZ3qCEQb-2" value="" style="shape=image;verticalLabelPosition=bottom;labelBackgroundColor=default;verticalAlign=top;aspect=fixed;imageAspect=0;image=https://cdn.worldvectorlogo.com/logos/gitlab-3.svg;" vertex="1" parent="1">
          <mxGeometry x="190" y="290" width="72.79" height="70" as="geometry" />
        </mxCell>
        <mxCell id="wjq4QsMhivjHkZ3qCEQb-3" value="" style="shape=image;verticalLabelPosition=bottom;labelBackgroundColor=default;verticalAlign=top;aspect=fixed;imageAspect=0;image=https://static-00.iconduck.com/assets.00/harbor-icon-2034x2048-hl34ycc9.png;" vertex="1" parent="1">
          <mxGeometry x="310" y="286.24" width="77" height="77.52" as="geometry" />
        </mxCell>
        <mxCell id="wjq4QsMhivjHkZ3qCEQb-4" value="" style="shape=image;verticalLabelPosition=bottom;labelBackgroundColor=default;verticalAlign=top;aspect=fixed;imageAspect=0;image=https://cdn.prod.website-files.com/5f10ed4c0ebf7221fb5661a5/5f2af61146c55b6e172fa5b3_NexusRepo_Icon.png;" vertex="1" parent="1">
          <mxGeometry x="450" y="283.5" width="83" height="83" as="geometry" />
        </mxCell>
        <mxCell id="wjq4QsMhivjHkZ3qCEQb-5" value="" style="shape=image;verticalLabelPosition=bottom;labelBackgroundColor=default;verticalAlign=top;aspect=fixed;imageAspect=0;image=data:image/png,iVBORw0KGgoAAAANSUhEUgAAAoAAAAFoCAYAAADHMkpRAAA4rElEQVR4Xu3dCXwU9f3/8W/CjRyKyuFVrQe2nvX219ZWa22rrdpae1lLW4/690bZcN/3oQKiVlFEjuzmJgkBwh0SCPcN4cxFAiQhCbmTTTbz/86CVua7CCSTZGf29X08ng99fNgkm52Zz7wzx3eEpmkCAAAAgUMpAAAAwN6UAgAAAOxNKQAAzpRbWhGUXVzRWmortZPan6b/v14LLqmuUb4OAPyVUgCAQLYtt6ht2PasnmE7sm6THpJ+e9nYsL+Jfq63RIhziHCEjhYO10ThcI4XIaEjRT/nQPnfl/4WlvxH+dpfS/fJr78hbEfmJWXV7iDj9wcAf6AUACDQzN50uPPbcVt+8nbc1tfumrbkAxnuomXY2yhCXJlSmVQvaedQKxXJr9sjv36lDIXz/xW+fqT8ns/K7937YEFpG+PPBYCWohQAwM7q6+u/8cCMZQ9K47sNj1ojQ1u6DHAlUp2PcNdQNdJx+b33/nDKojj5s/49cVVaz69/vvG9AUBzUQoAYFebjhR2Hr18113CMT9EhrJtPgJb03PIkOlwxnYZGv7s2syCq4+crODIIIBmpxQAwG5k8Os0JWnfo12GRk2VIeyw5FGCWfPTjw4u+/UXSX3le7vVXedR3jcANBWlAAB24amvF3+ck/Lg7e8v/lycCn5mnt41S7m06enZyX0/XX+ou/F3AICmoBQAwMpqPR6RdbKiTd/4rTdcOXbBJOFwnZD0GzSMwcu/OFwVFw2O2CTf8/PJ6XmX5pdVKb8bAJhFKQCAVaWkaOLDpPTrxMDIvjJUpQn/ONV7oWRYDY370QcJvwhbfrLL8ePq7wkAjaUUAMCKVhw83un6l7Y+I96OWCRDVKWPYGUl9SLEmSWeWzrtDzO23FVdW8d8ggBMpRQAwCr0qVT0myfun774h9eMjftKOFzHhDWP+p2Fs1o6cO+0pa+PW7H3Iv2aRqaPAWAGpQAAVpBfXtXmj861N4r+rhHC+kf8zqVOBsGtYpDrr2E7si43fhYAcKGUAgD4u4/XHezxN+e6V2UwSpXcPgKTXZW2HxQ+b0pS2s/XZZxob/xcAOB8KQUA8Fcxu3NaPzMn5RftBobHyTBU7CMgBQKPcLj2/3DyoknPzE3+foW7VvmcAOBclAIA+Jvs4vI2V0z89NYuQyJnygCU5w1BajAKJPqzifXrA9N7jY1/6T9xey8tq64NNn5uAHA2SgEA/EVGUVkr1/bMG64bH69P65LrIwjh9BNF/hO16dmonUe6GT9DAPBFKQCAPxicsLPzrz5f9W8R4lwuA06Vj+CDMx1vOyD8y7fitty/OC2Ho4EAvpNSAICWok9xok918m78tttbh4RFy/B3Qpw63WkMO/BNv1s47coxMcPv/33+5SWlTBkDwDelAAAtYVtOUesPU/bfKfqFTpMhJlBv8DBT5vfGxfdJycjveay0kiOCAM6gFACgOe3OKxeT1xy8+opRC16TwW+X4AYPEzkrRUho5B/nJT89bXX6RcbPHkDgUgoA0FyOllS2vWf68j+IkPAE4XCVqAEGJtADdXYrR+TnI5bt7m1cBgACk1IAgKZU5a4TmUUV7Z+du/bW7iNjXKeDH0f9ml5tu4HhB68YHTvQuS3rmtyTnBYGAplSAICmsiTREzRkya7bRUjESBlIcgQ3eLQEfSLpTb1Gxv7VuSOnx8HCSmU5AbA/pQAATSFse1a3y/6y6UUZQNaLU3PXGYMJmpWzSPSPmPvIzDWP5Z6saGtcXgDsTSkAgFn0KV3SC8ta3fdh4k+7j4yJ9YYOJYigBdXKZZJ963uLPnx1wcbL6zz13ql4jMsRgP0oBQAwQ3ZxRfsHPlhzq3C4ZgnvY8uU8AH/US+X0xHhiOg7cdX+6zZv9QQZlycAe1EKANAYNXUeMTlp7w2/+nz1ABks9gpu8LAS/Ykryy97ctefEtKOdjUuWwD2oRQAoKE+Tt3f9snZa/4kQpwpMkiU+QgYsATnsWvGxc3+w+yU+9NPlLcyLmcA1qcUAOBCrck40bHXhGU/6Tg4Qn98m36dH3f3Wl+tcLiOXT4iavJv5y2/oqiypo1xuQOwLqUAAOdr17GTbZzbsm6TwW+KDAz6c3uNIQLWp5/C3/HU7DWv6PMHVtXWcX0gYANKAQDORZ/M+c0FG3s+8OGyvjIcpEp1PoID7EWfsHvhS5Ebn5qzNYtpYwCLUwoAcDb6tC6jxtQH3T0y5WHhCF0jA8FJweneQKLfLZxz6Yjoz+79OKX3nvwyjgYCFqUUAMCXdVkFHfsv2vFjGQJCRYhTv1vUGA4QWApaDwgbnZyRf11GUXlr4/oCwL8pBQD4tpSsgqBJSWm92w0OGy2D32HBET/8j3594Oqf/3flC5NWH+hRXlOrrD8A/JNSAICvbc0p6nzzewkvyJ18kuDxbfBNPy18QjjC4h6fteLhD1JTlfUIgP9RCgACW2m1W2QUlV/04MeJP+k2PHqVCHGWCyZzxrnJdcSZ136wc8bk1XtvySws50YRwI8pBQCBK2J3WtsXIzc+IHfm08SpGzyMO3ng3ByuQ8H9wvqHbs26bltOMTeKAH5IKQAITDPWHujZZvDMoXIHvkvokwAbd+rAhXC43FLCXR8k/n370eIuxvUNQMtSCgACR52nXqxJz29/7/SlT3cZGrlaOLyne9WdOdAwHhkC82+YGB/55Ow1t9V6PEH6VELG9RBA81MKAALD/vzSTlePitendVksOOKHpubwPht68ptxW29Lzizi+kCghSkFAPaWV1bVatKqtDvvmZY4XjicR5QdNdB09D80tgYNin13/tbMnsZ1E0DzUQoA7Gv4st0dH/l05TvC4doqd8RM5oyW4XCVdxsRHff7OclPrssqaG9cTwE0PaUAwF706/zmbs/t0nNc4hNtB4avljvgCsFkzmh5+tRCxRcPi3LdOSnh9oyi0vYnq6qU9RdA01AKAOwjNetEu0/XH9Kv85sjHK4SHzthwB8cE/1nDXk+fPkPC8qreawc0AyUAgDrO1JcHvRG1KYbbp68aITcue71scMF/E2V/CNl7bNzU958f3VaJ+M6DcBcSgGAdemne/8TH9/qh5Pj+4h+zs1yh8rpXliLw1l80eCIuHumLv1p4r5jreqZNgZoEkoBgPW46zxizeH8i/8emvpr0c+VKIMfj26D1ZXLMPhV1M7su/bmlbQzrvMAGkcpALCWhfuzg4cl7rhXvOv6WO4wj/nYkQLW5XDtu+39JSETV+25IedkBY+VA0yiFABYR0Jabverx8eEiBDnNrmzrFN2noD16ZcwlAlHaNJD/13+75Co9cHG7QDAhVMKAPxbYUVNUHpheZerxsX/qcuQyE3C4dTn8+M6P9idvo6Xt+nvWvBW7JYfy23goto6j7J9ADg/SgGAf6p014n5O3I7/e6LNb8Q/bzTuvD4NgSqPGnq9JQDd69Jz29l3FYAnJtSAOCfQhZt7y0GRH8gQpyHBad7Af1Gp83XT1zY94341VccLixUthkAZ6cUAPgP/e7e0K1Zne+ZtvSFtgPDt8sdXrWPHSEQqPTTwiWi/9xVN0+Of7K6ti5YnwrJuB0BUCkFAC3v8GFNJKUVX9wqZN7vRYgzVXDEDzgPTuczc1J+nJRRcFFVbZ2yXQH4H6UAoGXtLyht95Bj70/Ey/EfyZ1aqbqTA3AWHhkC08XAiPH9Y/fcFh2tbl8ATlEKAFrOy5Gbut/34dJxckeWJrl97OAAnFuN6Bu+odf/S345eld2V+N2BoAACLQ4/bqlCWv2Xtpj7IK/B/cP2y1OXefHtC5A49QLh6u805DIVT3GRv/mQEFpp4KKamX7AwKVUgDQfBIPHOs4atnup+TOKl6q9LETA9B4VaK/c8Yvv1z9YEZRWQfjdggEIqUAoOltO3Iy+PXorXf2Gr3gA7lzyvWxwwJgrloR4tzz2MxVowcu3nGtcZsEAo1SANB0aj0e8cS8sM7fn7AwRDhc+uneGsHpXqA5VbQeELbp7qnLnv18fUZ7d61H1NczdQwCj1IAYL6SKndQ0uG8yx/+dOUf5Q5oh4+dEoDmpf/xtVS84PrN+swTnY3bLGB3SgGAuebuONLq1ZhNj8udzTwR4izysSMC0HIKrhgdO3nCqr337D5+so1x+wXsSikAMEdKiiaeGnL4uktGLhjvnZvs1KOrjDsfAC1PPxq47e5pSwb+w5lyiXFbBuxIKQBonOOllUGpWQU9ug6OeV30jdh7eufCdX6Af5PbqLMqKMS5rcfLyU8Nf7+sa6W7Nsi4fQN2oRQANEx+aaWYt/FQt/umL35SOEKXntqhKDsZAH7PWSa5Bi3e8euEtKPtjds6YAdKAcCF0+8ifGZ20k9E33mfC4fzqCD8AVanb8OZl42ImfBa3OYfrD9ygqOBsBWlAOD86KGvptYTNCkp7bK7pyUOlMEvU/D4NsBmnFXyv1uvnRD36sETZZ1q6zxKLwCsSCkAOLc9+fkifFtmL/H2/BeFw6Vf58cNHoD9bXhg+vInVh/Ou7SoskbpC4CVKAUA32199olOt05z/UaEzI8QPL4NCCT6aeETIiR05osRGx75YmtuK2N/AKxCKQDwrc5TL576Irn3LVMWfSRCvKd7OeoHBKZa6UCX4XEjP1p38ApjrwCsQCkAOFNZtbvV6wvX9+w+KvpN4XAdk7jOD4CuusOgiB3dRyx4YcXB492PllQq/QPwV0oBwP9E7sy+/NXozc/L0JcsuMEDgG/6EcGE299f+Kt5S4ovPnpU7SWAv1EKADSx9GBe69ditjzUcVD4PBn+Cn00fAD4Nn0i6SPi70s/enL6lnur3XVMGwO/phSAQFbpdou7Pv7qiivHxE6UDf2wDH91Pho9AJyN/uSf9Ds/WPTuyOU7u1TX1gXpU0YZew3Q0pQCEIiOl1WJ1el5l/aeuPBZ+Vd8ho+mDgAXQv/jcbN42fXn+Rszeb4w/I5SAAJNcWVN0J+d624TA1wfy4Zd7KORA0BDFbcbFPHf8Uv33pyclq/0H6ClKAUg0DwzN+VXskmvl6p9NG8AaKxa8Y5zVe/RC3+3JaewtbEHAS1BKQCBoNJdK4ZF7ercfWDMa0H9XXmCZ/cCaFJOj3A487oOi+6fllfS1diTgOamFAC7q/N4xODF268Q74S+JzjlC6B51V0xJnbq3BUF1xw8qPYnoLkoBcDuxizb3VX0d86WjbjcR3MGgKZWKf6dMPvnAzdff7SIyaPRMpQCYFf6o9zGrNxzaYfBEV+KU1M1GJsyADQTZ5Xo64q+e8jSK91utV8BTU0pAHZU6a4TgxZvv1qEhM4ThD8A/uLtiMTHnivuZexZQFNTCoAdDV286xLZbD+RKpQGDAAtp/bGSQu/WJOef6WxbwFNSSkAdjN6tCbavh0zWDi45g+AXyq9aVLC6C1HCjsb+xfQVJQCYCdFlTWtH/kw+Tme5wvAj9XLHlXSdXjEa7vzipknEM1CKQB2cay0KujZeet+KpvrXm+DVZsuAPiTvJunLvg/Yy8DmoJSAOxi5aHjV4qQsCihz8KvNloA8DsXD4taMmdzxhXGfgaYTSkAdlBa5Q6+YeLCEOFwVRobLAD4LYerotvw2OGRO3PbGPsaYCalANjBne8l3imbaZnSXAHA/6W/E7/18bJqd7CxtwFmUQqA1S3ed7RLr9ExET6aKgBYgUeEOMN2Hiu+1NjfALMoBcDqXone9CfZPPN9NFUAsIrSX81c/aSxvwFmUQqAlbm2Z13TflB4gvD+Ba00VACwjr4RG5/pU9nO2OcAMygFwKpKqtytXo7c+E/ZOEuURgoAluOsfvSzVX829jrADEoBsKr9BaWXyoYZrzZRALAip+eqMbExcXtzuhr7HdBYSgGwqgc/XPZz2TSZ9gWAfThcmQMWbX+8zlOv9DygMZQCYEU7jhcHdRkaGao0TwCwtjppakJabkdj3wMaQykAVvTEV2uuESHOoz6aJwBYnHOjDIA/NPY9oDGUAmBFT8xKelE2SU7/ArAhZ+V9MxY/XVrtVnof0FBKAbCa91YeatcmJDJCv2BabZwAYAfOjworqtsa+x/QUEoBsJoxy3ffIRzO7WrDBADbODBv+9Euxv4HNJRSAKxmzIo9f5bNMc9HwwQAu6jrPWXZLcb+BzSUUgCsZH3WieBeo2OHyuZY66NhAoBt9J608N/GHgg0lFIArGT5wePdRYjTaWyUAGA3vScnzDb2QKChlAJgJTIA3igDYIqxUQKA3Vw2Mmp93L6sYGMfBBpCKQBWIgPgXTIAZhobJQDYjsN5qE/4uu7GPgg0hFIArMJTXy9mb05/RDZGt9IoAcBuHM7cPq7U+4y9EGgIpQBYRUVNrRD95v1FaZIAYEcOZ74MgE8YeyHQEEoBsAoZAINEv9C3lCYJAHbkcBX1ca3vY+yFQEMoBcAqZAAMln8Rj1KaJADYkcNZ0seV+rqxFwINoRQAq5ABsJVsiJOVJgkAtuSs6BOWOsDYC4GGUAqAVcgA2Fo2xA/VJgkAtiQD4Pohxl4INIRSAKziVAB0feSjSQKAHVXJADjK2AuBhlAKgFUQAAEEGAIgTKMUAKsgAAIIMARAmEYpAFZBAAQQYAiAMI1SAKyCAAggwBAAYRqlAFgFARBAgCEAwjRKAbAKAiCAAEMAhGmUAmAVBEAAAYYACNMoBcAqCIAAAgwBEKZRCoBVEAABBBgCIEyjFACrIAACCDAEQJhGKQBWQQAEEGAIgDCNUgCsggAIIMAQAGEapQBYBQEQQIAhAMI0SgGwCgIggABDAIRplAJgFQRAAAGGAAjTKAXAKgiAAAIMARCmUQqAVRAAAQQYAiBMoxQAqyAAAggwBECYRikAVkEABBBgCIAwjVIArIIACCDAEABhGqUAWAUBEHbXqr9Le2DGMu2W9xYp/xaILh0erT386QrtosERyr8FCAIgTKMUAKsgAMLufvtlknYgv0TbebRYu2FivPLvgSRYhuEvNqZrRRXV2qhlu7V2A8OV1wQAAiBMoxQAqyAAws46DY7UPkw5oNV5PNqJ8mrtudB1ymsCyffGxWk7jxVr+th0pFC7/f3FymsCAAEQplEKgFUQAGFnt763SNsig44+amrrtImr9mpBPl4XKJ6YlaTlnKzwfh5y29f+GbbBe1TQ+DqbIwDCNEoBsAoCIOxKD3rPu1Jl8PNo+qivr9cid2Vrl46IVl4bKN6N36aVy+D39XBuy9Q6D41UXmdzBECYRikAVkEAhF11GBSuRezI1r49Nh8p1H40dYny2kDQdmC49tHaA94g/PXQT4tfPyHgroskAMI0SgGwCgIg7OqK0Qu0grIq7dsjs6hce/SzlcprA0GPUTFa5M4zA7E++rhSldfaHAEQplEKgFUQAGFXT85eoxlHWXWt9uzctcprA8ENExdqKw8eN34k2rwtGcprbY4ACNMoBcAqCICwqxlrD2jGoZ/+/HfEBuW1geC29xdrG7NPGD8SLaOwTOsYWHMCEgBhGqUAWAUBEHak39m6NrNA8zUGLtrunQ7lGgvoOXqB1mGQOeFMv/Zxe26R8ePQCsqrtHumJSqvtzECIEyjFACrIAA2re4jY7Rfzlyt/S10nSZ3Ot5pNy7UCxEbtf8XvUn7fzGbL9hrkn7nZ0M4ErZrg5fs1IYkXrih0pjle7RxKxvmvTX7tKnJ+8/qffnv/RZuO+vTPfQ7fQ+dKNN8jV3HirXE/ccsIX5vrvbFxsNyHdigXTaycXcv3zt9qbb7+Enjx6GVVrnl+hlQ1wESAGEapQBYBQGwaXQfFaP1lwFKP+JytKTSe7dlYUWNVtQAxZU12km5ky5pIP26t4bQpwupdOvqGqS6ts47BUtD1Ho8Wp2n/qz0f9ff314ZaH735Rplbr87py75Zr47qw9Pfb13HUhIy/UeFTSua+frbAGwSi7jwUt2KK+3MQIgTKMUAKsgAJrvB5MTtMR9R707bkbTDv0j3pB1Qrtp0sIzlsHTs5OVO4DtMJYeOKZ1GRalrHPn4/4ZS7V9+SXGb+kN059vOKy83sYIgDCNUgCsggBoLv3ZqqFbMzVG843jpZXan+adeWevfuq7pKrG+FLLj+LKauV3PV+PfLrSezTaOPQQHbcnR+s4OGCeC0wAhGmUAmAVBEBz6c+aLat2a4zmG/rn/UrUpjOWw7gVe7ynoO023HUe7/WPxvXuXPSbYl6M2Oj9el8j6XBeo04vWwwBEKZRCoBVEADNc/e0Jdq23KIznrTAaPpRLgOgfpPM18uh9QCXNmdzhi1Pwevr1vytGcq6dy69Rsdoq2XIO9vYdbTYe42g8etsigAI0ygFwCoIgOa4bES0927Nsx1hYTTdKKyo1v7hWv/NstDvvF64N9f4MtuM0G2Zyvr3XToPidRGLdv1nYE4u7hc++2sJOVrbYoACNMoBcAqCICNp59e+4cz1XunL6P5R1ZRufbEF/8LL70nJWjJGfnGl9lmnG8A1NfLmycnaJNXp3mvHfyucbKyRuvzrRBtcwRAmEYpAFZBAGy8q8bGavt93F3JaJ6xI7fIO+3L18vjwRnLfE53Ypfx7QDYakCYdsWYBd7HvOlunpIgf/+l2p/nrfXe2bs/v9Q7Jc+5Lkuo83i8cz8ap9OxKQIgTKMUAKsgADbORUMitK82p2uMlhurDh33noL/epk8MStJyz2p3u1ql/HtAHj1uDjvhNFmjCmr0wLlkXAEQJhGKQBWQQBsOP0U2/OuVO81aIyWGfp1bWHbs7zL4uvl8ndnqlZeY987sZsqAOo3zlw6vHFPG7EIAiBMoxQAqyAANpz+GLLk9PzvvLie0bRDf2rI+JV7vlkmehB8O26rrZdJUwXAJfL7XD02VlnPbYgACNMoBcAqCIANc/GwSO3jdQe9jyVjtNyQ66/2YuTGb5ZL+0Hh3mcQ23k0VQBMzSrQrp8Qr6zrNkQAhGmUAmAVBMCG+ev8dVopEz63+NCXwS9nrvpmuehPYhm5bJfxZbYaTRUA9cfMcQQQuDBKAbAKAuCFu2JMrHfiXEbLj+LKGu9UJ18vG/0uVv0awJM2fAzc16MpAqD+POAJq/YGyuPgCIAwjVIArIIAeGHaDgzTpibv9+4wGS0/CsqrlDtXrxkXqy1Ky9U8Nl1GZgdAfYqYTUdOaHdPS1TWd5siAMI0SgGwCgLg+Ws9IEz7hytVO15q3ylGrDYOnyhTlpPujg8We4ORfo2g3YZZAVCf+6+gvFpbKr/+/g8D5jFwOgIgTKMUAKsgAJ6/H0xO8N71e65JdRnNNzIKy7VgH8tK9z0ZjhwLt2mzN6dr0buOaAt25zTYioPHtcIK/zit/O0A2HVYlPbviA3e07cXQr9zemjiTu05Z6rWa/QC5bOzOQIgTKMUAKsgAJ6ftgPDvY/U0qcdYfjPKK448xpAo1b9w7Ruw6O8T8u4ckxsg+mPScsrqzL++BYZxkfBtep/6uj0hdA/lwB56ocvBECYRikAVkEAPD+Pz0rSqtx1GsO/hrvOo01N3qd1aMInWNw4caG27MAxvznyawyAuGAEQJhGKQBWQQA8t2vHx2kbs09oDP8cR0srtb7xW894HJwZ9CNld3ywRIvcmW38kS06CICNRgCEaZQCYBUEwO/WcUiENnFVmlbptt/NBHYa+WVVWoQMai9HbvQ+C/gXn61qMH1ewedC18nlvtcb/P1tsm8CYKMRAGEapQBYBQHw7PRrpJ6cvUbLLi73m9N/jLMP/fFvJytrtOOlVdrRksqGK630Pt+5urbOL5c7AbDRCIAwjVIArIIAeHY3TVqopWTkaxcy9BDij6GBYZ9BAGw0AiBMoxQAqyAAnt2UpDTvXGnnO7KKK7TVh/O02rrz/xoG40IHAbDRCIAwjVIArIIA6NvPPlmunSiv1s5n6Ef9dhwt1v7wVYr2SvQm76lDBqOpBgGw0QiAMI1SAKyCAKjS531LOpznDXbnGmXVtVrUrmzt6rGxWnB/l/a8az0BkNGkgwDYaARAmEYpAFZBAFQ970r1PmP2u4YeDjOLyrVhiTu1i4dFfetrCYCMph0EwEYjAMI0SgGwCgKg6q+h67S8su9+3u/W3CLt918la52GnDkBMQGQ0dSDANhoBECYRikAVkEAVOkTCsfsOqJ5DPO/6Xf36k+eWLzvqNZ7UoL3cVrGryUA2nPoy95f7u4mADYaARCmUQqAVRAAfbtqbKy282ix9vXQT/lmFZdrQ5acecrXiABov6GH/n35Jd7Jpv1hEAAbjQAI0ygFwCoIgGf3+BdJ2u7jJ73hb1tukfbMnJRzPnOWAGi/Eb4jS/vdl2u8zwP2h0EAbDQCIEyjFACrIACeXZuBYdqPpi7xBr873l+iBfVXX2NEALTXWJuRr31/Qrx2zbg4bel+AqBNEABhGqUAWAUB8Nz0R8IZa2dDALTP0E/5/+yTFd7lSgC0FQIgTKMUAKsgAJqLAGiPoZ/2/2zDIa3rsEjvciUA2goBEKZRCoBVEADNRQC0xyitdmuvxmz+ZrkSAG2FAAjTKAXAKgiA5iIA2mMcKa7w3vjx9XIlANoKARCmUQqAVRAAzUUAtMfQn/Ly689Xf7NcCYC2QgCEaZQCYBUEQHMRAO0xCIC2RgCEaZQCYBUEQHMRAO0xCIC2RgCEaZQCYBUEQHMRAO0xCIC2RgCEaZQCYBUEQHMRAO0xCIC2RgCEaZQCYBUEQHMRAO0xCIC2RgCEaZQCYBUEQHMRAO0xCIC2RgCEaZQCYBUEQHMRAO0xCIC2RgCEaZQCYBUEQHMRAO0xCIC2RgCEaZQCYBUEQHMRAO0xCIC2RgCEaZQCYBUEQHMRAO0xjAGw1+gF2sK0XOPLmn14PB5t9uZ0Zb3DBSEAwjRKAbAKAqC5CID2GEdLKrU/zk35Zrl2HByhzd6Urnnq640vbdZR5a7VRi3brax3uCAEQJhGKQBWQQA0FwHQHqOypk57J37bGcv25aiNWnFljfGlzTryyqq0n368XFnvcEEIgDCNUgCsggBoLgKgPUZ9fb02Z0uGdumI6G+W7SXDo7T4PTmax9MyRwFrPR7tw7X7tTYDwpT1DheEAAjTKAXAKgiA5iIA2mfkllRqv/xs1RnLt+eoBVrUzmwtv6yq2YKgHvyyiyu06Sn7tc5DI5V1DheMAAjTKAXAKgiA5vLHAFhb59GOl1Zp+/JLtLS8wJBVXK655e/d2BEpw16nIWeGrstHxmh/m79Om5KUps3dkuG9K7epfLU5Qxu7Yo/2uy/XEP7MQwCEaZQCYBUEQHP5WwDcffyk9krUJu3/ZizT7py6RLvjA/u7U7p3+lLtrzKkrUnP0+oacaSuyl2n9Vt45rWAX+swONx7ilgPhE1F//5tB4YrPxuNQgCEaZQCYBUEQHP5SwDUj34t2H1Eu2L0Ai24v/o+A0FQiH60Llobv3KPVlrl1hp6A29RZY02NHGn1l0GMv17Gn8OLIcACNMoBcAqCIDm8ocAqAeddRkF2i3vLVLeXyDSj6KFb89u1JHA8ppaLXxHlvbbWUln3BgCSyIAwjRKAbAKAqC5/CEA6mFl0OIdWmvuFv3GYzNXeU/nNnZkFVdo0buOaGNW7NFeiNigPTs3RXtqdvJ5e3DGMq3D4Ajl/aFZEQBhGqUAWAUB0Fz+EACzDE+xgEtrNzBcK6yoNn5UDRr6FDH6MtbnBDxRXq3lX4CIndnex8oZ3x+aFQEQplEKgFUQAM3lDwFQvwv2numJynsLdAcLSo0fVbOPpQeOaddNiFfeG5oVARCmUQqAVRAAzeUvAfCuaQRAIwIgTiMAwjRKAbAKAqC5CID+iwCI0wiAMI1SAKyCAGguAqD/IgDiNAIgTKMUAKsgAJqLAOi/CIA4jQAI0ygFwCoIgOYiAPovAiBOIwDCNEoBsAoCoLkIgP6LAIjTCIAwjVIArIIAaC4CoP8iAOI0AiBMoxQAqyAAmosA6L8IgDiNAAjTKAXAKgiA5iIA+i8CIE4jAMI0SgGwCgKguQiA/osAiNMIgDCNUgCsggBoLgKg/yIA4jQCIEyjFACrIACaiwDovwiAOI0ACNMoBcAqCIDmIgD6LwIgTiMAwjRKAbAKAqC5CID+iwCI0wiAMI1SAKyCAGguAqD/IgDiNAIgTKMUAKsgAJrLHwLgXj0ATl2ivLdApwfjlh4L03K1q8fGKu8NzYoACNMoBcAqCIDmemzmKq3SXau11Kivr9e25hRp143nKJORfvStJYe+bL7anK5dMjxaeW9oVgRAmEYpAFZBADTX5SNjtJyTFVpLDY+nXnNuy9TaDAhT3lug65+w3RvCWmqUVbu1d+O3akH91feGZkUAhGmUAmAVBEDzjV2xxxvEWmLoIePh/65U3hNc2i3vLdJ2HSs2fmTNMvTguSH7hPaDyQnK+0KzIwDCNEoBsAoCoPmuGL1Am7M5Xatw1zbbESeP/DlFlTXeI0ytOfrnU6v+Ydozc5K1/fklWl0zBvQ6j8d7VPjnMpgHc/TPHxAAYRqlAFgFAbBpdB0Wqf0napOWuP+YtvNYsQwdpdr+AvPtk2FmS06R5tyepT02czXh7zzc+cFibeaGQ9qm7ELvDTNNtWz0760f9fts/SHt9vcXK+8DLYYACNMoBcAqCIBNq9uIKO+ULD/5eLn20CcrTPfjj5ZpP5iySOswKFz52Tg7/WjgjRMXag/MWKr99JOmWTb69/7+hHitLaHc3xAAYRqlAFgFARBAgCEAwjRKAbAKAiCAAEMAhGmUAmAVBEAAAYYACNMoBcAqCIAAAgwBEKZRCoBVEAABBBgCIEyjFACrIAACCDAEQJhGKQBWQQAEEGAIgDCNUgCsggAIIMAQAGEapQBYBQEQQIAhAMI0SgGwCgIggABDAIRplAJgFQRAAAGGAAjTKAXAKgiAAAIMARCmUQqAVRAAAQQYAiBMoxQAqyAAAggwBECYRikAVkEABBBgCIAwjVIArIIACCDAEABhGqUAWAUBEECAIQDCNEoBsAoCIIAAQwCEaZQCYBUEQAABhgAI0ygFwCoIgAACDAEQplEKgFUQAAEEGAIgTKMUAKs4FQCdH/pokgBgR5UyAA419kKgIZQCYBUyALYSDucEH00SAGzIWd4nLDXE2AuBhlAKgFXIABgsG+IItUkCgC2V9glb/4axFwINoRQAq5ABMEg4XG/4aJIAYEfFMgD2MfZCoCGUAmAVFTVuIRyhz8qmWO+jUQKAzTjz+4SlPm7shUBDKAXAKqpra8UDn4b+TDbGKrVRAoDNOFw5fVwb7jL2QqAhlAJgJcsPHr9LNsYMpVECgN04XIdkALzc2AeBhlAKgJXIAHiDbIzJSqMEAJu5emxs6t68kmBjHwQaQikAVrL84LFuIiR0trFRAoDd9J6U8ImxBwINpRQAK0nLP9nqvhlLBsvm6DY2SwCwk96TFj1v7IFAQykFwGrGrNjzF9kc84zNEgBspLb3BwtuMvY/oKGUAmA1Y1bsvk2EOLcJpoMBYFcO547tR4s6G/sf0FBKAbCasO2ZbbqPjHYKh6tOaZoAYAvOcYUVNW2M/Q9oKKUAWNETXyT9RwbASrVpAoDllfzDtf63le46pfcBDaUUACt64vPVVwuHs8BH4wQAa3O41iSk5XL9H0ylFAArqqnziG4jor9UGicAWFt1jxELhicfzm9t7HtAYygFwKouHfXVL2WzrPDRQAHAmhyuA0OW7HzI2O+AxlIKgFVNS916uWyYiUoDBQBr8twyZdH8bbnFHY39DmgspQBY1aGCsuDOgyL/JUKc5T4aKQBYjLPs0c+W/dzY6wAzKAXAyr7anHGNcLjiZfP0qM0UAKyj1QBn1JAVK5Q+B5hBKQBWtjO3OOi+6Uv/KZvnCWMzBQDLcLjy3l247efGHgeYRSkAVvdK3J6LRUj4YqWhAoA1eESI8+OdR4u7GPsbYBalAFidu84jnp2bcpv8C7rIR2MFAH+mP9Jy3YzUA3d46uuV/gaYRSkAdlDprgsW74aPko202keDBQB/VXzzewkvJ2cVBBv7GmAmpQDYQa3HIwYm7LpOOFyLxKm/qI1NFgD8Tq8xC+asyyy42NjTALMpBcAuKt21Qe8u3PaobKp7BSEQgH/Te1TaA+8nf8/Yy4CmoBQAO4nYnSd6jF7YRzi4KxiA35Lhz5n+wIxlvy6rdgcZ+xjQFJQCYDcR27PbXDQ4YrRssm4fjRcAWlr+I5+ufP3wibIOxv4FNBWlANhR2I7s7rLJzpJqfTRfAGghTvc90xLHpxeWM+ULmpVSAOyovr5eLNh9pOdlI2I+Ew5XldqEAaCZOVwVwf1d01+duaW1sWcBTU0pAHbm2pZ1tTcEhrjqlGYMAM2nRPR3ffTP6A2XGfsU0ByUAmB3sbuP9JB/eX8uG3CNj6YMAE2tXLzhev+F+Rt7FVfVKD0KaA5KAbA7/XRwxI7s7hcNihx7+u5gpogB0Bz0XlN+Wd+lQ1/oW9a5pMKt9CeguSgFIFBEbj/SpuegBc8Lh3PP6cZsbNYAYBb9spP9D8xY9q+Kmlqe8oEWpxSAQBKZekQ44r2TRSdI3BwCwHwOGf76uRIf/XTVY4cLy9oZ+xDQEpQCEGgq3XVBQxJ3Xicbtf7s4GKleQNAw7nF2xGf3vv7vGszCsuZ5Bl+QykAgajOUy+qa+uC/zYv9YfibVeC/Iu9UDZuj49mDgDn5nBVXjYies1d0xf/bn9+SVu3W+07QEtSCkAgq/N4xGuzt1z84EfLX5RNfIVs4twpDOBC6H84Huw2PHrk/K2Z1xp7DOAvlAIATew+XhI8b2vmTV2HRAyRIfCIjyYPAEYnpVn9F2//Rfze3LbGvgL4E6UA4H8yi8rbfZJ66K4Og8JnixBngeBuYQBnkj3BWRnUPzz1qa+SHzt0oqxLhbuWa/3g95QCANXMLfuDn5yd9Kjo51ouHNwoAsCrWlr/o6lL3noucmdnY98A/JlSAOCbp75eTFi+98rHv0h6Q/7Fv1E2/lofOwQAgSGn5+jY0RNWpd2689jJVsZ+Afg7pQDgu2UXV7R96HPXTSJk3iS5EyjzsWMAYF+VUtT7a/Y9vOlIYUdjfwCsQikAOLdaj0dkF5W3unvK4ju7j4wJlTuE4z52FADsQb/2t7TVAFfy3R8s+9WnKVlt9DMCxr4AWIlSAHBhIndld3otZvOzwuFcJXcSFT52HgCsS58KavOjn60KCVm8rYdx+wesSikAuHD19fVi+OLtN4q35vSTQXC/YBJpwA5Oiv/EjfvF65l3Hi4sY1oX2IpSANAwVe5acbigtO1f5yXfcNmIqI9FiFO/W1h/ALxxpwLAf+nTupzsNCQitsfwBT/de7SsQ0GBur0DVqcUADReQXl1q3vHrXlYvBQfIXcozB8IWEN524Fhq5+anfRsxM7M9sbtGrATpQDAHGlpmpgQerz7NZMWPS9CnKmCo4GAv6oTDuduMfCzgcOXbbvOuC0DdqQUAJhr27GTQR+nHvyB3MmMkEGQu4UB/1IrHK7pT89ed0dSxpH2lW63sg0DdqQUAJhPnzLCXecJClm0/fq2g+Z+KU5NG8MRQaBleOQfYyeuHBMbc/f0xQ+W17iD6zxM64LAohQANK2hK1e3/c3nSc+KfmEL5I6oVHB9INCMnPq0Lquum5TYZ+mBo5cYt08gUCgFAE0vq6giaP6WrKtvmrTwBbkz0qeN8bGjAmAi/Q+tdBESOuSD5H0/SMosVrZLIJAoBQDNJ7eksnX83twbOw+NnCJ3TjmC08KA2TzC4SrpMSrm09diNt96uLCsnbvOo2yLQKBRCgCaX/z+3KCn56bc13FwxHy5w8oXnBYGGkvfhgrFu/Njfzpj2eO1hD7gDEoBQMv5JPVQ1+ddqX3kjmuZVOVjpwbg3PQn8ay75f3FL0xctrNXdmGZsq0BgU4pAGhZ+iTSf3Hkf0/8c/Gbcid2wsfODcBZOfOkcWE7sm7ec7yklXH7AnCKUgDQ8urqNO+0MfdPX/S9a8bFzhAOV5bg+kDgbPQjfnkdh4TPnLgq7WZ929Gfz23crgD8j1IA4F+SDue3e2PBlse6DIsMkzu5Eh87PyCQyW3CGf/MnJQ/T167q7Vx+wHgm1IA4J/mbMnsKQbFviR3dpuE/vQCdUcIBJrd905f+tL8bZnX5JdVBRu3GQBnpxQA+Cf9SQXpRRWt+8Vtv7rnyNiBwuE6LhEEEWhqhcOZ03VY1ORbHyu4Nq+siqN+QAMoBQDW8Oy8dXfe/v7iL/SdoTh1DZRxRwnYjDPvkuFRs56enXRPcnoeR/yARlAKAKxjS05h1x99mPB7ERIaK3eQbnWHCdhChZT4asym5+dszbjIuB0AuHBKAYC17Cs4GRS3J+cq8Y7rTeFwHvax8wSsLEcMnPX6a3Erry6pcjOtC2ASpQDAevQpL2rrPEHTUw706jw0dLQMgkwbA+vSr211ODOunxD//uP/XdlDX7c9TOsCmEopALC26evXi7/MS35UvBs6T+5IeawcrOZkz1ELZr2xYPPDW3MK2xrXbwDmUAoArK+oolqEbsno/tOPV/xJ7lDX+NjJAv5Gv6M9WQyOf37p/mPdjOs0AHMpBQD2kV9eHbz9aFHPS4ZH9xeOsEPi1I0iHBGEP3EHh7jSe46IfWv88r29Mooquc4PaAZKAYD9bMotFb+ft+nmy0fFTJU7XP36QEIgWlqdCHFm3Pfh0o9eitpwvXGdBdC0lAIA+3LtyG7bN27rU8LhihI8Vg4tp1r0d3310Gcrfr0vv4RpXYAWoBQA2Ft5TW3QmvT8nr/5fHUf4XDu87FzBpqKfuR5Z/BAZ581GfmXpxeVKesngOahFAAEBv3Rcs98ubbLjZMWjpI75QNSjY8dNmAGt3gnfG+3N5e+E7o1s1utx6OsjwCal1IAEFh2Hz/Z+s3YLQ9cPTb2Y+Fw6tPGGHfeQEN5hMOVLfq5/vvCnG13zZ6trn8AWoZSABCYVh463rXdsI+ekTvt5YKjgWgshx7+nFG/nbX6idCtWV0r3bXKOgeg5SgFAIErq/hk8LSU/d17jYl9ufWAMP36QIIgLoR+jV+VeDNyR49hcf/KKCq/uKiiOsi4ngFoeUoBAHRvxG2+8v8+WjZVhDgPilOT9Bp39sC3eaRdV42PG/qHd3OvPHhQXacA+A+lAABfSy8s6/DLL1Y9Kvq7Zsmde4WPnT6gyxP9XDOHJe78cfz+XCZyBixAKQDAt2WdLBfJGfmXdRwa/hcR4twumEQa/+OR68Tq55zrnkhOz7+kppa7ewGrUAoA4Is+bUzM7pyLL+u79C3RN3ynOPVYOWMggP3pfwBUCIdr6y1TFr/08qebW3nq65X1BYB/UwoA8F1CQzXxypxdtwnH/E/EqcfK6dd+GUMC7Gtf78kJI9+M2X5TdnEFN3gAFqUUAOBc3HUe4dyW0eWPc9Y+IQOB/lg5bhKxO4f30YFzP11/6CepmSfaG9cJANaiFADgfBVX1gRlFpV3/f74hf8QIWG7hD4FCNcI2olcls6KtgPDV/caGv7EvA2HuuiXAhjXAwDWoxQA4EIdOVkl/hC65aprx8cNl4FBD4KEQOurFA7n5l98uvKdYct2dTQucwDWphQAoKES9x9tPWbF7v8TIaH6tDEFPkIFrCH77mmJYyav2ntHXmkV07oANqQUAKAx9FOEKRn53V6I2Pi0DBJrpTofAQP+Sb+zO+6q4YkP7s8vvci4bAHYh1IAADPoU4O8Hbmn9e3vL3lFhDj1aWMqfQQO+AVnaZehEcvvm770iaTD+W09XOcH2J5SAAAz5ZVVBb0Vu+WHt763eIIMGofU8IEW5Nbn82v99LoBH607cLlx2QGwL6UAAE1h05HCi675TfpDMnRECo4G+oNCMSB80ovRm++OiKtpY1xeAOxNKQBAUzl6tF5E7cy55IoxC59pNyg8VTgIgs1Mn7S7tNuI6IQHPlp+b2ZxRYfS6lplOQGwP6UAAM1h3Io9F/9q5upBMgTq08bU+AgrMJM3bM9LvPm9mL9uySniBg8gwCkFAGguRRU1rf8SuvF+MSDyAxHiPK6EFpjBI8Pf3rYO16DJSTuvTcnKUpYDgMCjFACgOeWV14iUzBNdbxwf/zMZAtd4A4saYtAQDle5/O8nIQnb70nNKGhn/OwBBC6lAAAtQZ82ZlP2iQ73T0/828XDIlO4PrDBZIB2For+EQnPzEm+R/9c6+uZ1gXAmZQCALS0mRsOXdthQMRoGWT2nQo0SsiBb7XyM1t+/4zEF99KSLuk0l2nfLYAoFMKAOAPYnbmtH9twaafiZDQz2WwKfMRdnCm7A4DI4a6tmfduOtYcbDx8wSAb1MKAOAvymtqg7KKyzs9/N+Vj4iQeRuEw1Uhg069j/ATqPTTvXkdB0d8PmPtgTuyiyu4zg/AeVEKAOBv3HV14hlnzMW3vrf4TRl6UsWpZ9Yaw1Agqfde5+cIXfTUV2t++fHGQxzxA3BBlAIA+KsN2YXBU5LSbu00JHKiDEE5PoJRIKgTDtfaX81c/Z8pq/f0qq7lOj8AF04pAIC/25hd2Gn40l2PyDAUK1X7CEl2VdxpcMT4tRkF388uruDxbQAaTCkAgBXoU5tMWbuv1X0zlj0uHKEbxakbRex5faDDmdN9ZMzn909d9oP0E2VBxs8CAC6UUgAAK6nzeMTbsZuu/snHywcKh2ub0E+RGgOUdZVKS16L3vy0a2tWe+PvDgANpRQAwIrS8kra3ft81l3ijagZp4OTMUxZif74tl3it2tfHTw363vuOo/y+wJAYygFALCqggJNrM8quujKiYseuWhIxGIR4izxEa78Wa0Mfsd6jIqZ/OycpCuzjrvbVFWpvycANJZSAAA7mLXpcKdn5ib/Q4aq9TII6s/ENYYt/+JwHfn+hPhZf/xq7QM5JyuZ1gVAk1IKAGAX+o0ir3+172bxh6QBMgTuEP55fWCJfG8x41fueXLZgWNdjb8DADQFpQAAdlJSoom1Oyrb//wLV28RMm+wDFtHfISw5udwuaUF4pcbn5oeVdCrzlOvvHcAaCpKAQDsSD8aqFt24NjFD3y49O+dhkQulEEsS6oSzTN9jH5jR4EMoFuunxg/9bGZq+74+j3V16vvFwCaklIAgEAwNXl/27fjtj760H9XDpXhLFLaJ8yfVNojHZOShGP+J2/EbHnu7YWbr9mYk89cfgBalFIAgECyP780OGxHdo+wHVkP9I3f9hcZ1sYIhzNWOFyHRMMC4VEpWZrZeWjEK/L7/kK6KWx7Zgd9zkLjzweAlqAUACBQVdTUBmUXV7STukrdJ6/e8/2rxsT85KoxC/501dgF70jDpAlXjY2dLE2S/z9KGiD//V9XjYn99VXDom89fKKsp/zabtJFOScrWhl/BgD4A6UAAAAAe1MKAAAAsDelAAAAAHv7/wYbpE3W4k5UAAAAAElFTkSuQmCC;" vertex="1" parent="1">
          <mxGeometry x="110" y="210" width="106.67" height="60" as="geometry" />
        </mxCell>
        <mxCell id="wjq4QsMhivjHkZ3qCEQb-6" value="" style="shape=image;verticalLabelPosition=bottom;labelBackgroundColor=default;verticalAlign=top;aspect=fixed;imageAspect=0;image=https://www.svgrepo.com/show/354365/sonarqube.svg;clipPath=inset(33.33% 0% 30.33% 0%);" vertex="1" parent="1">
          <mxGeometry x="560" y="286.24" width="180" height="65.4" as="geometry" />
        </mxCell>
        <mxCell id="wjq4QsMhivjHkZ3qCEQb-9" value="" style="image;aspect=fixed;html=1;points=[];align=center;fontSize=12;image=img/lib/azure2/identity/Tenant_Properties.svg;" vertex="1" parent="1">
          <mxGeometry x="82" y="110" width="85" height="60" as="geometry" />
        </mxCell>
        <mxCell id="wjq4QsMhivjHkZ3qCEQb-10" value="&lt;h1&gt;N-Prod Tenant&lt;/h1&gt;" style="text;html=1;align=center;verticalAlign=middle;whiteSpace=wrap;rounded=0;" vertex="1" parent="1">
          <mxGeometry x="385" y="100" width="175" height="30" as="geometry" />
        </mxCell>
        <mxCell id="wjq4QsMhivjHkZ3qCEQb-11" value="" style="rounded=0;whiteSpace=wrap;html=1;" vertex="1" parent="1">
          <mxGeometry x="101" y="550" width="713" height="150" as="geometry" />
        </mxCell>
        <mxCell id="wjq4QsMhivjHkZ3qCEQb-12" value="" style="image;aspect=fixed;html=1;points=[];align=center;fontSize=12;image=img/lib/azure2/identity/Tenant_Properties.svg;" vertex="1" parent="1">
          <mxGeometry x="86" y="520" width="85" height="60" as="geometry" />
        </mxCell>
        <mxCell id="wjq4QsMhivjHkZ3qCEQb-13" value="&lt;h1&gt;Prod Tenant&lt;/h1&gt;" style="text;html=1;align=center;verticalAlign=middle;whiteSpace=wrap;rounded=0;" vertex="1" parent="1">
          <mxGeometry x="370" y="510" width="175" height="30" as="geometry" />
        </mxCell>
        <mxCell id="wjq4QsMhivjHkZ3qCEQb-14" value="" style="shape=image;verticalLabelPosition=bottom;labelBackgroundColor=default;verticalAlign=top;aspect=fixed;imageAspect=0;image=https://static-00.iconduck.com/assets.00/harbor-icon-2034x2048-hl34ycc9.png;" vertex="1" parent="1">
          <mxGeometry x="419" y="586.24" width="77" height="77.52" as="geometry" />
        </mxCell>
      </root>
    </mxGraphModel>
  </diagram>
  <diagram id="YSymvp6C6LmaUZMuydWW" name="Pipeline">
    <mxGraphModel dx="1221" dy="823" grid="1" gridSize="10" guides="1" tooltips="1" connect="1" arrows="1" fold="1" page="1" pageScale="1" pageWidth="850" pageHeight="1100" math="0" shadow="0">
      <root>
        <mxCell id="0" />
        <mxCell id="1" parent="0" />
        <mxCell id="S3DN3SP_YOvLHuzwJFFX-3" value="" style="rounded=1;whiteSpace=wrap;html=1;" vertex="1" parent="1">
          <mxGeometry x="100" y="650" width="650" height="150" as="geometry" />
        </mxCell>
        <mxCell id="HYU_LJJLKY2yYgCueCcE-2" value="" style="rounded=1;whiteSpace=wrap;html=1;" vertex="1" parent="1">
          <mxGeometry x="90" y="200" width="660" height="310" as="geometry" />
        </mxCell>
        <mxCell id="HYU_LJJLKY2yYgCueCcE-3" style="edgeStyle=orthogonalEdgeStyle;rounded=0;orthogonalLoop=1;jettySize=auto;html=1;" edge="1" parent="1" source="HYU_LJJLKY2yYgCueCcE-5" target="HYU_LJJLKY2yYgCueCcE-9">
          <mxGeometry relative="1" as="geometry" />
        </mxCell>
        <mxCell id="S3DN3SP_YOvLHuzwJFFX-2" style="edgeStyle=orthogonalEdgeStyle;rounded=0;orthogonalLoop=1;jettySize=auto;html=1;exitX=0.5;exitY=1;exitDx=0;exitDy=0;" edge="1" parent="1" source="HYU_LJJLKY2yYgCueCcE-5" target="HYU_LJJLKY2yYgCueCcE-18">
          <mxGeometry relative="1" as="geometry" />
        </mxCell>
        <mxCell id="S3DN3SP_YOvLHuzwJFFX-19" style="edgeStyle=orthogonalEdgeStyle;rounded=0;orthogonalLoop=1;jettySize=auto;html=1;exitX=0;exitY=0.5;exitDx=0;exitDy=0;entryX=0;entryY=0.5;entryDx=0;entryDy=0;" edge="1" parent="1" source="HYU_LJJLKY2yYgCueCcE-5" target="S3DN3SP_YOvLHuzwJFFX-9">
          <mxGeometry relative="1" as="geometry">
            <Array as="points">
              <mxPoint x="50" y="280" />
              <mxPoint x="50" y="725" />
            </Array>
          </mxGeometry>
        </mxCell>
        <mxCell id="HYU_LJJLKY2yYgCueCcE-5" value="" style="shape=image;verticalLabelPosition=bottom;labelBackgroundColor=default;verticalAlign=top;aspect=fixed;imageAspect=0;image=https://cdn4.iconfinder.com/data/icons/logos-and-brands/512/144_Gitlab_logo_logos-512.png;" vertex="1" parent="1">
          <mxGeometry x="130" y="240" width="80" height="80" as="geometry" />
        </mxCell>
        <mxCell id="HYU_LJJLKY2yYgCueCcE-6" style="edgeStyle=orthogonalEdgeStyle;rounded=0;orthogonalLoop=1;jettySize=auto;html=1;entryX=0;entryY=0.5;entryDx=0;entryDy=0;endArrow=none;endFill=0;" edge="1" parent="1" source="HYU_LJJLKY2yYgCueCcE-7" target="HYU_LJJLKY2yYgCueCcE-14">
          <mxGeometry relative="1" as="geometry" />
        </mxCell>
        <mxCell id="HYU_LJJLKY2yYgCueCcE-7" value="Build" style="html=1;verticalLabelPosition=bottom;align=center;labelBackgroundColor=#ffffff;verticalAlign=top;strokeWidth=2;strokeColor=#0080F0;shadow=0;dashed=0;shape=mxgraph.ios7.icons.settings;" vertex="1" parent="1">
          <mxGeometry x="510" y="255" width="55" height="50" as="geometry" />
        </mxCell>
        <mxCell id="HYU_LJJLKY2yYgCueCcE-8" style="edgeStyle=orthogonalEdgeStyle;rounded=0;orthogonalLoop=1;jettySize=auto;html=1;entryX=0;entryY=0.5;entryDx=0;entryDy=0;endArrow=none;endFill=0;" edge="1" parent="1" source="HYU_LJJLKY2yYgCueCcE-9" target="HYU_LJJLKY2yYgCueCcE-10">
          <mxGeometry relative="1" as="geometry" />
        </mxCell>
        <mxCell id="HYU_LJJLKY2yYgCueCcE-9" value="Scan" style="shape=image;verticalLabelPosition=bottom;labelBackgroundColor=default;verticalAlign=top;aspect=fixed;imageAspect=0;image=https://www.myqnap.org/wp-content/uploads/sonarqube-logo.png;" vertex="1" parent="1">
          <mxGeometry x="280" y="240" width="80" height="80" as="geometry" />
        </mxCell>
        <mxCell id="HYU_LJJLKY2yYgCueCcE-10" value="Success" style="shape=image;editableCssRules=.*;verticalLabelPosition=bottom;labelBackgroundColor=default;verticalAlign=top;aspect=fixed;imageAspect=0;image=data:image/svg+xml,PHN2ZyB4bWxucz0iaHR0cDovL3d3dy53My5vcmcvMjAwMC9zdmciIHZpZXdCb3g9Ii0wLjUgLTAuNSAyOCAyOCIgaGVpZ2h0PSIyOCIgd2lkdGg9IjI4Ij4mI3hhOwkgIDxzdHlsZSB0eXBlPSJ0ZXh0L2NzcyI+JiN4YTsJCS5zdDB7c3RvcC1jb2xvcjojMDBjZWFjO30mI3hhOwkJLnN0MXtzdG9wLWNvbG9yOiMwNzgzOGY7fSYjeGE7CSAgPC9zdHlsZT4mI3hhOwk8ZGVmcz4mI3hhOwkJPGxpbmVhckdyYWRpZW50IGdyYWRpZW50VW5pdHM9InVzZXJTcGFjZU9uVXNlIiB5Mj0iMjUuMzA5IiB4Mj0iMjMuNDU0IiB5MT0iMy40NzQiIHgxPSIyLjAzOSIgaWQ9IkEiPiYjeGE7CQkJPHN0b3AgY2xhc3M9InN0MCIvPiYjeGE7CQkJPHN0b3AgY2xhc3M9InN0MSIgb2Zmc2V0PSIxIi8+JiN4YTsJCTwvbGluZWFyR3JhZGllbnQ+JiN4YTsJPC9kZWZzPiYjeGE7CTxwYXRoIGZpbGw9InVybCgjQSkiIGQ9Ik0xMy41LS41YzEuOTMyIDAgMy43MzYuMzY0IDUuNDE0IDEuMDk0IDEuNzEzLjczIDMuMjA4IDEuNzMyIDQuNDgzIDMuMDA4IDEuMjgzIDEuMjg2IDIuMzA1IDIuODA5IDMuMDA4IDQuNDgzLjczIDEuNjc4IDEuMDk0IDMuNDgyIDEuMDk0IDUuNDE0YTEzLjgyIDEzLjgyIDAgMCAxLTEuMDk0IDUuNDY5Yy0uNzEzIDEuNjU0LTEuNzM0IDMuMTU3LTMuMDA4IDQuNDI5LTEuMjg2IDEuMjgzLTIuODA5IDIuMzA1LTQuNDgzIDMuMDA4QTEzLjQzIDEzLjQzIDAgMCAxIDEzLjUgMjcuNWExMy44MiAxMy44MiAwIDAgMS01LjQ2OS0xLjA5NGMtMy4zMzgtMS40MzgtNS45OTktNC4wOTktNy40MzctNy40MzdBMTMuODIgMTMuODIgMCAwIDEtLjUgMTMuNWMwLTEuOTMyLjM2NC0zLjczNiAxLjA5NC01LjQxNC43My0xLjcxMyAxLjczMi0zLjIwOCAzLjAwOC00LjQ4M1M2LjM3OCAxLjMwNyA4LjAzMS41OTRBMTMuODIgMTMuODIgMCAwIDEgMTMuNS0uNXptLTcgMTRhMS43IDEuNyAwIDAgMC0uNjguMTE2Yy0uMjE2LjA4NS0uNDEzLjIxMy0uNTc4LjM3NnMtLjI5MS4zNjItLjM3Ni41NzgtLjEyNC40NDgtLjExNi42OGMwIC40MzguMTY0Ljg1Ny40OTIgMS4yNThsMy41IDMuNWMuNDAyLjMyNy44MjEuNDkyIDEuMjU4LjQ5Mi40NzMgMCAuODkzLS4xNjQgMS4yNTgtLjQ5MmwxMC41LTEwLjVjLjMyNy0uNDAzLjQ5Mi0uODIxLjQ5Mi0xLjI1OC4wMDMtLjIyOS0uMDQ1LS40NTUtLjE0LS42NjNzLS4yMzQtLjM5My0uNDA4LS41NDFjLS4xNDgtLjE3NC0uMzMzLS4zMTItLjU0LS40MDdzLS40MzQtLjE0Mi0uNjYyLS4xMzljLS40MzcgMC0uODU4LjE2NS0xLjI1OC40OTJMMTAgMTYuMjg5IDcuNzU4IDEzLjk5Yy0uMzQxLS4zMTgtLjc5Mi0uNDkzLTEuMjU4LS40OXoiLz4mI3hhOzwvc3ZnPg==;" vertex="1" parent="1">
          <mxGeometry x="403" y="258" width="44" height="44" as="geometry" />
        </mxCell>
        <mxCell id="HYU_LJJLKY2yYgCueCcE-11" style="edgeStyle=orthogonalEdgeStyle;rounded=0;orthogonalLoop=1;jettySize=auto;html=1;entryX=-0.021;entryY=0.506;entryDx=0;entryDy=0;entryPerimeter=0;endArrow=none;endFill=0;" edge="1" parent="1" source="HYU_LJJLKY2yYgCueCcE-10" target="HYU_LJJLKY2yYgCueCcE-7">
          <mxGeometry relative="1" as="geometry" />
        </mxCell>
        <mxCell id="HYU_LJJLKY2yYgCueCcE-12" style="edgeStyle=orthogonalEdgeStyle;rounded=0;orthogonalLoop=1;jettySize=auto;html=1;entryX=0.5;entryY=1;entryDx=0;entryDy=0;entryPerimeter=0;" edge="1" parent="1" source="HYU_LJJLKY2yYgCueCcE-7">
          <mxGeometry relative="1" as="geometry">
            <mxPoint x="537.5" y="170" as="targetPoint" />
          </mxGeometry>
        </mxCell>
        <mxCell id="HYU_LJJLKY2yYgCueCcE-13" style="edgeStyle=orthogonalEdgeStyle;rounded=0;orthogonalLoop=1;jettySize=auto;html=1;entryX=0.5;entryY=0;entryDx=0;entryDy=0;" edge="1" parent="1" source="HYU_LJJLKY2yYgCueCcE-14" target="HYU_LJJLKY2yYgCueCcE-15">
          <mxGeometry relative="1" as="geometry" />
        </mxCell>
        <mxCell id="HYU_LJJLKY2yYgCueCcE-14" value="" style="shape=image;verticalLabelPosition=bottom;labelBackgroundColor=default;verticalAlign=top;aspect=fixed;imageAspect=0;image=https://cdn4.iconfinder.com/data/icons/logos-and-brands/512/97_Docker_logo_logos-512.png;" vertex="1" parent="1">
          <mxGeometry x="610" y="244" width="72" height="72" as="geometry" />
        </mxCell>
        <mxCell id="HYU_LJJLKY2yYgCueCcE-15" value="Container&#xa;Repository" style="shape=image;verticalLabelPosition=bottom;labelBackgroundColor=default;verticalAlign=top;aspect=fixed;imageAspect=0;image=https://static-00.iconduck.com/assets.00/harbor-icon-2034x2048-hl34ycc9.png;" vertex="1" parent="1">
          <mxGeometry x="615.62" y="375" width="60.76" height="61.17" as="geometry" />
        </mxCell>
        <mxCell id="HYU_LJJLKY2yYgCueCcE-16" value="Containerization" style="text;html=1;align=center;verticalAlign=middle;whiteSpace=wrap;rounded=0;" vertex="1" parent="1">
          <mxGeometry x="596" y="225" width="100" height="30" as="geometry" />
        </mxCell>
        <mxCell id="S3DN3SP_YOvLHuzwJFFX-1" style="edgeStyle=orthogonalEdgeStyle;rounded=0;orthogonalLoop=1;jettySize=auto;html=1;" edge="1" parent="1" source="HYU_LJJLKY2yYgCueCcE-18" target="HYU_LJJLKY2yYgCueCcE-20">
          <mxGeometry relative="1" as="geometry" />
        </mxCell>
        <mxCell id="HYU_LJJLKY2yYgCueCcE-18" value="" style="shape=image;verticalLabelPosition=bottom;labelBackgroundColor=default;verticalAlign=top;aspect=fixed;imageAspect=0;image=https://icons.veryicon.com/png/o/business/vscode-program-item-icon/helm-1.png;" vertex="1" parent="1">
          <mxGeometry x="130" y="375" width="80" height="80" as="geometry" />
        </mxCell>
        <mxCell id="HYU_LJJLKY2yYgCueCcE-19" value="GitLab" style="text;html=1;align=center;verticalAlign=middle;whiteSpace=wrap;rounded=0;" vertex="1" parent="1">
          <mxGeometry x="140" y="210" width="60" height="30" as="geometry" />
        </mxCell>
        <mxCell id="HYU_LJJLKY2yYgCueCcE-20" value="" style="shape=image;verticalLabelPosition=bottom;labelBackgroundColor=default;verticalAlign=top;aspect=fixed;imageAspect=0;image=https://upload.wikimedia.org/wikipedia/commons/thumb/3/39/Kubernetes_logo_without_workmark.svg/2109px-Kubernetes_logo_without_workmark.svg.png;" vertex="1" parent="1">
          <mxGeometry x="360" y="382.5" width="66.89" height="65" as="geometry" />
        </mxCell>
        <mxCell id="HYU_LJJLKY2yYgCueCcE-21" style="edgeStyle=orthogonalEdgeStyle;rounded=0;orthogonalLoop=1;jettySize=auto;html=1;entryX=0.072;entryY=0.654;entryDx=0;entryDy=0;entryPerimeter=0;startArrow=classic;startFill=1;endArrow=classic;endFill=1;" edge="1" parent="1" source="HYU_LJJLKY2yYgCueCcE-20" target="HYU_LJJLKY2yYgCueCcE-15">
          <mxGeometry relative="1" as="geometry" />
        </mxCell>
        <mxCell id="HYU_LJJLKY2yYgCueCcE-22" value="Image&#xa;Pull" style="shape=image;verticalLabelPosition=bottom;labelBackgroundColor=default;verticalAlign=top;aspect=fixed;imageAspect=0;image=https://cdn-icons-png.flaticon.com/128/8249/8249067.png;" vertex="1" parent="1">
          <mxGeometry x="490" y="407.5" width="47.5" height="47.5" as="geometry" />
        </mxCell>
        <mxCell id="vifFwPq4igSeCGqlFT9_-1" value="" style="shape=image;verticalLabelPosition=bottom;labelBackgroundColor=default;verticalAlign=top;aspect=fixed;imageAspect=0;image=https://cdn.prod.website-files.com/5f10ed4c0ebf7221fb5661a5/5f2af61146c55b6e172fa5b3_NexusRepo_Icon.png;" vertex="1" parent="1">
          <mxGeometry x="496" y="80" width="83" height="83" as="geometry" />
        </mxCell>
        <mxCell id="vifFwPq4igSeCGqlFT9_-3" value="Artifacts" style="text;html=1;align=center;verticalAlign=middle;whiteSpace=wrap;rounded=0;" vertex="1" parent="1">
          <mxGeometry x="505" y="50" width="60" height="30" as="geometry" />
        </mxCell>
        <mxCell id="eiwIUj6xdFnZL0RBMjPi-1" value="" style="image;aspect=fixed;html=1;points=[];align=center;fontSize=12;image=img/lib/azure2/identity/Tenant_Properties.svg;" vertex="1" parent="1">
          <mxGeometry x="70" y="163" width="85" height="60" as="geometry" />
        </mxCell>
        <mxCell id="u17c9IhGyjmmYCGDsXSM-1" value="&lt;h1&gt;N-Prod Tenant&lt;/h1&gt;" style="text;html=1;align=center;verticalAlign=middle;whiteSpace=wrap;rounded=0;" vertex="1" parent="1">
          <mxGeometry x="321" y="163" width="175" height="30" as="geometry" />
        </mxCell>
        <mxCell id="S3DN3SP_YOvLHuzwJFFX-4" value="" style="image;aspect=fixed;html=1;points=[];align=center;fontSize=12;image=img/lib/azure2/identity/Tenant_Properties.svg;" vertex="1" parent="1">
          <mxGeometry x="100" y="610" width="85" height="60" as="geometry" />
        </mxCell>
        <mxCell id="S3DN3SP_YOvLHuzwJFFX-5" value="&lt;h1&gt;Prod Tenant&lt;/h1&gt;" style="text;html=1;align=center;verticalAlign=middle;whiteSpace=wrap;rounded=0;" vertex="1" parent="1">
          <mxGeometry x="332.5" y="610" width="175" height="30" as="geometry" />
        </mxCell>
        <mxCell id="S3DN3SP_YOvLHuzwJFFX-7" value="Container&#xa;Repository" style="shape=image;verticalLabelPosition=bottom;labelBackgroundColor=default;verticalAlign=top;aspect=fixed;imageAspect=0;image=https://static-00.iconduck.com/assets.00/harbor-icon-2034x2048-hl34ycc9.png;" vertex="1" parent="1">
          <mxGeometry x="637.62" y="685" width="60.76" height="61.17" as="geometry" />
        </mxCell>
        <mxCell id="S3DN3SP_YOvLHuzwJFFX-8" style="edgeStyle=orthogonalEdgeStyle;rounded=0;orthogonalLoop=1;jettySize=auto;html=1;" edge="1" parent="1" source="S3DN3SP_YOvLHuzwJFFX-9" target="S3DN3SP_YOvLHuzwJFFX-10">
          <mxGeometry relative="1" as="geometry" />
        </mxCell>
        <mxCell id="S3DN3SP_YOvLHuzwJFFX-9" value="" style="shape=image;verticalLabelPosition=bottom;labelBackgroundColor=default;verticalAlign=top;aspect=fixed;imageAspect=0;image=https://icons.veryicon.com/png/o/business/vscode-program-item-icon/helm-1.png;" vertex="1" parent="1">
          <mxGeometry x="152" y="685" width="80" height="80" as="geometry" />
        </mxCell>
        <mxCell id="S3DN3SP_YOvLHuzwJFFX-10" value="" style="shape=image;verticalLabelPosition=bottom;labelBackgroundColor=default;verticalAlign=top;aspect=fixed;imageAspect=0;image=https://upload.wikimedia.org/wikipedia/commons/thumb/3/39/Kubernetes_logo_without_workmark.svg/2109px-Kubernetes_logo_without_workmark.svg.png;" vertex="1" parent="1">
          <mxGeometry x="382" y="692.5" width="66.89" height="65" as="geometry" />
        </mxCell>
        <mxCell id="S3DN3SP_YOvLHuzwJFFX-11" style="edgeStyle=orthogonalEdgeStyle;rounded=0;orthogonalLoop=1;jettySize=auto;html=1;entryX=0.072;entryY=0.654;entryDx=0;entryDy=0;entryPerimeter=0;startArrow=classic;startFill=1;endArrow=classic;endFill=1;" edge="1" parent="1" source="S3DN3SP_YOvLHuzwJFFX-10" target="S3DN3SP_YOvLHuzwJFFX-7">
          <mxGeometry relative="1" as="geometry" />
        </mxCell>
        <mxCell id="S3DN3SP_YOvLHuzwJFFX-12" value="Image&#xa;Pull" style="shape=image;verticalLabelPosition=bottom;labelBackgroundColor=default;verticalAlign=top;aspect=fixed;imageAspect=0;image=https://cdn-icons-png.flaticon.com/128/8249/8249067.png;" vertex="1" parent="1">
          <mxGeometry x="512" y="717.5" width="47.5" height="47.5" as="geometry" />
        </mxCell>
        <mxCell id="S3DN3SP_YOvLHuzwJFFX-15" value="" style="endArrow=classic;html=1;rounded=0;exitX=1;exitY=0.5;exitDx=0;exitDy=0;entryX=1;entryY=0.5;entryDx=0;entryDy=0;" edge="1" parent="1" source="HYU_LJJLKY2yYgCueCcE-14" target="S3DN3SP_YOvLHuzwJFFX-7">
          <mxGeometry width="50" height="50" relative="1" as="geometry">
            <mxPoint x="770" y="300" as="sourcePoint" />
            <mxPoint x="820" y="250" as="targetPoint" />
            <Array as="points">
              <mxPoint x="820" y="280" />
              <mxPoint x="820" y="720" />
            </Array>
          </mxGeometry>
        </mxCell>
        <mxCell id="S3DN3SP_YOvLHuzwJFFX-16" value="" style="shape=image;verticalLabelPosition=bottom;labelBackgroundColor=default;verticalAlign=top;aspect=fixed;imageAspect=0;image=data:image/png,iVBORw0KGgoAAAANSUhEUgAAAOEAAADhCAMAAAAJbSJIAAAAt1BMVEX////ZKRxGRkbeJxk/R0c4ODjw8PCLPDg/Pz/XKRw2SEjgJxiHh4fSKh1DRkY7R0dfQkF5Pjt+PTmYmJhrQD40NDQ8PDwwMDDs7Oz39/fR0dHLy8tHR0fe3t6POzeYODOgoKBMRUSPj4/DLiS8MCdmZmZvb29UVFS6urqdnZ1mQT+vr6+AgICuMyza2tqmNS5cXFzLLCGbODJTREOzMirBLyVyPzySOTXnJRRtbW3BwcGiNjBYREMHM6E8AAANNUlEQVR4nO2daXeqOhSGqwFFUHACtFWr1qGn2sHW2p62//93XbKDVVDIDkVPum7eD3etexbNymNChj1xcaGkpKSkpKSkpKSkpKSkpKSkpKSkpKSkpKQkgbolvjqIZ34iTPvdTHSdxbTn6Xy5iGd+Ikz7Xm+26AjyXU19zyj+HhmeP3sQ4OvO3N+Ex2T4SzRg32B8tsYVPMd/LLNsXPvwWNHrIafqpQt4jlNvlDkavNBHB7zHMmvwQvvOfazx5TgwjHofA9gBQGf0WbMIT+912oN37nNZ9d6m7fOfs1bXNswnA7OszukUdcqEFPiygNBCPJlNFhBWEE+SQoMOo/GXDzjUgwfNR1yv5SEMnn0zg2fdWx5gyRcAlIowQIRR5A6hF6xdG2yfpSIsENobnTeIPfoSrtA9kItwEsxTY5oO2A8mqdZAd1kuQtYdN305vQ3WGeces4zumpSHkDwHb6J7mUrYCl5Dp4bvgWSEk4DQW6QSjoPN0Ea3KBthYRW8iN4wlbBqCLUoG2GNjmFLESrCSA8U4U5wBbBIpVarVQqWBfcWfvu/hJCyrNbX5c3XyIZbtW2Pgrvn83pV4GD+CkJi1e4Hd7bpOAGYvTU5UFLHMbV6+X5lJVPKT0gKk/ILZUsyrtgB50t5XUiAlJyQWK/lkRmhM74VpbSbE+sYo9SEVu16D8/wdNctPk1ny+p4PK7Opk8919V3BkvNtN9qh+1ITGitGo5jb+lcfdr66MfO/N3+bWuqu/qW0nEaN/GWpCW0bjamFuLp+myRYqvt3C6NrXFWMzev0bYkJSTB+Gkhnre84lu/LsdGOJKas1ntv49SEpLC25bP//vBpQt1NfO9cBzLlR2jjITWegTG2aKnj4WcJZ2WFzLaOzuYfISk0jBhffHcPyURPqruUGeM5qZGJCW01qHl2f2TzaU3ZOOoafeWlISkzAbQn4k6877VHftsGJtEPkJS+4I30CteZeWj6s912B2/6EyVipC8shnqj3/CR9WCYdSKN0QqQrKGI4zxswFkeujRXtjmmkhESO6pW6Soz7KtMDF1ZzBTzcd3aQitRwD00xsX0BBmqvm5kYSQhIBczxZeVy57GYtSEL6HUzTdnC6oB3d7s/r3hKMJAHooHzpenaIhC2HRPgVggCgPIUzRzMcYPiK6O6ckxIV5iKoPm4aG94WdjtDPdZHZ6ZJuGnYbbVQ/GSE/ACKrFnRFda6xLttTEeo/PoomawzBL69IxPwJCY3KMp5OB3hxMaU+2xdkf3InJBDB4p5gGd2pS+/EzgA3iLkTriAKKd1v/mN9QAzTzT8htO5sXCTZz7Sk87SOWk9zJmQ3JlfY4kRVuly0qsvq+M8tfyPt0j6ZqBAYLCEyNNIa0SCrDHP0sjXXXc+jDhpPd43ZgvMj3QZbhj3ix4ISq4AkbOK0oXebuShed2i4XnFfhu5X0xerp6BXWhvTJxtHKBCh7IoaLbY20agMt5pmHICbFCImG6KyMYR48cLkDrrag5MmdRmapkn/s/WeekbabzUT6JaRfv4QJOTEkMX1hxlDNWfUfLyB8/TN+u0rdHOkGen6Pr5PmDE0MQLLmtgQLpllwmxMdgEKwfJwU2aM+jR5ps6Y9Y0rJGENoQLdC8XeQmZAczar+NZGKmVmiuwlLqo0f8CuF3i9WiHXUsxeCMcZoYW0SgE1bX1s67ZeRxogJo4iXU6dG96emOOOT8qa4F44pFNUq1eOd5IU2hCknXiI/wh+H615RsIC7PZY82+3e3FF1wrtLrlBq0wRvcTMHrrJaLxe5UcIoapGFUN32Zp6vu/DFK2ntckQ/aRXm0a+OmvOIOZI2NRQW8VDNTjAbDcge5TeqAWHpF5SUy6NQD8boUWXPo/LN/X3t1dzwnuNUg+6sF9wGsiP8MZETNLxlo9F65lv3Ag/ZlpOas6gP9KZCMl10JKevhl2n9gBTTO1u0a5uWk/IoMtkzZZuiVqb+mN5EYIPdFT7zxd8AEWnWJ5sr3bcAHDBSxhOe3q/ItwfrOUdj7d/vQElxT7s4DO3aCCK2dS5tJfg7tf5EZIX0PvT1o7S7Af3SXs74mCg4SbECRGU7Kc9BcxL0LySF/DtHinDzDkNoUDwMnaSc7NuqL5PJ+pv1luhPSX9tOu5TBF8elTO6UdnWniIOfglhchix9IbKPTp7lF9ovgDAVVislLzQVdau7OQ5h8NbyqPuk+RFM6WEt8RNSInmifnHIvPrmtNAmHUmpkCjf5URGdpRmR9UWnR8KLCHt+aufyIoSXZXjwt7fezshkm+gszSghc/XMjx55Fx7P+J0X4eTogjcLQwtYmgHiBHNMzBOSYLShd8T060VOhOT+yJmtNGdRheZoM3i+fxXdCHe6Y9F/+pH3/JKb/pkX4SfN1Ixa40uQX2A7zVdcuk+yrEmbGW3mB/frfjBLnOdzEEIuanQ7hEOaUz8wMmUQsSbMaHNwLOxwz955EV5rccIxHNLKOSWxkcIGLBrxd7FECVM9iXkRvsUJIaDA4d7/8LKaYNGIraglao0qn41w/+4EnpMsh7RkxGNuH+oOPiPh3hheuXwjjKgqo8PL8PnGMP4eUpO7QBI/SrAlGbMo4dnew+fobkHP/PZL3qmycBn2I3YEuFycZS2l18O9ayocNdBBPVjB7xg9OZ1vP4ydaaAOAy5WQkSrg/M9nGlSj4MnOpfOkN4cQZFgmkbvaGc7l8bvFvPgNfzKP2MdYlki+wXcLV7T/ibX++HuIt6jV+9zEML9MDUU80R3/Pm5CP+e7Y4fs9M8nWKzCC/DEUJq/an/C1sbjcoSiOPFqmLHtvwz2tpi9lK6AOR9pAk0ideaOaO9NGbzpqEgApHKSJFB3EV5Rpt33G8xp87BbJanFEHo6n7fwG+R3recfU/fVgY6TfMeRIu+65EjTdc7o+8p5j/sskKEeb6J4GeLGoPO6j9kPuCdkQFqLfKjXfAiNVoGJWrep8ffs/mAmR9/z8/XA192Jjv+ccARGIYjd6fz+vHjsRgPkPnhYAtKcmStoZCNH/HfnTkW4yCeZsEyIturo0VYRESsVQMCFtyoqW2MMSTkHRPl7dlsGaJmtu9rBBGvnBTGTGr3bVY0JAbIkhJ4vco9rm3/Bn7LQkBtx3m5ayDjqONqtF+0sOaLH3Oi3+Ya14YYwiOxiWEiPasBlVHbQlKeFw85yTc2ERVfCoU0oybb4zHc4vL8Vtxn8ZBvfCk+RjjurV3MfS9SA0pYhufPh4eROjnHCON1GLzXX1SnewWvBFV8Wi6OpZiIxHkb6YTL08bqZ5VItzjxdqL5FqdKHo2qL5JvkRjKsUfYwKlN2ztp7uFWNAhDu8P0CUmI3LIz5z2J6hYiBBC9sgiS8Ay5ayKC3LV0W/dWqQFH4oRh/uEstcEcJJB/mDchXBNPnkMKUf7ppu7TEVpnyAMusTxg3L0sd0LpcrkryP1QNB/fQyVeZFNLKB8//zHc1lQ42at4y6I8sNfqkxGe7GjDkkfxbp/TEZ60tolAnf8TEp6kPk2JnbcF6vyfkrDo5Y5YMmQh3NaJyhmx09smFf1zwuL7J0MU+fAZV/3vAsMSEFrWM7Nw5lBRcKsrVkBJFsJCiOgP8wIMa+5d05p7UhAWrFzrJoZp3+Y11E2Ug/C79mUvh5dxW/vy3rIkIiyQmxGrX5qa8YURq19qF4PDKJGJsEBqdcgk0Oc/Ot88sKB/VoNWLsLg/wZhHeFqZstGtxqpIywb4a4WtD7MBrgworWgpSPcq+dtZLhQLcLaLmZ7W89bPsK9muy6ccT9kKLSsBimRu/VZJeRsEAKg7DgjOcv0dfGy6V7rK6+lITUt7jZfjvA7bUQkP3hPMzqi38bQVJC+n2Lxvb7Fp5rVD9Spmvpo9rbVsY6/L6FtIT0GyXN3TdKdLe3HF7FL1fd/sdwWdz/Rknz4BslEhNuvzMT9p5+Z8Y35tNlddwaDlvj5d/4d2aco9+ZkZoQktCaxciXkKAGnQe16Hb/WLQ1s9hcH03pk5yQ9rCwbo6433saTJK+9yQ/IdTyWj2W647p7CItAM3e+2ZX8l//AkLoJyGVyeOgefdifweVfLXL1/erCiff9LcQss7ST+dZ9NN5tUqBIL+d96sIM0kRxqUI/xeEkn0PWJjQ5lb3/OMJJRbIRrjiFj+S7bvcgoQs9zO9BH6H5hbhC69IRgg57qnFjy5Y/gveJSkZIarkKE0uwhcPkIsQhpDz4fHgXgrxOdi0AqkIrU+I7uF6Tlj+yz2u1zIRMucQxlI7h0C5AarIjDyEhJTTi9juqQOxjs7os8YPd3xnPmBUsGYWvYP/sMB9zlo9F8FMi4tAuwRE23HqZZ4GL/TRAfe5rBrQ0l8297FmPTR7JRUkjKsfWogQccfMjHQ62bj27dAMhPZ6lWbuvqnod8hwhRzQV1Pf+02QhudPRSPPOotpz9P5chHP/ESY9r3e30W2aJ5uia8O4pmfCNN+PuERSkpKSkpKSkpKSkpKSkpKSkpKSkpKSkpKSj/UfyE/stBQVioZAAAAAElFTkSuQmCC;clipPath=inset(13.56% 6% 13.56% 6.89% round 5%);" vertex="1" parent="1">
          <mxGeometry x="800" y="447.5" width="95.61" height="80" as="geometry" />
        </mxCell>
        <mxCell id="S3DN3SP_YOvLHuzwJFFX-18" value="Open Firewall Rules" style="text;html=1;align=center;verticalAlign=middle;whiteSpace=wrap;rounded=0;" vertex="1" parent="1">
          <mxGeometry x="810" y="535" width="110" height="30" as="geometry" />
        </mxCell>
      </root>
    </mxGraphModel>
  </diagram>
</mxfile>
